<svg version="1.1" xmlns="http://www.w3.org/2000/svg" viewBox="0 0 445.1231025520849 392.80003356933594" width="445.1231025520849" height="392.80003356933594" class="excalidraw-svg"><!-- svg-source:excalidraw --><metadata></metadata><defs><style class="style-fonts">
      </style></defs><g stroke-linecap="round" transform="translate(138.80007934570312 111.59996032714844) rotate(0 83.60000610351562 83.19999694824219)"><path d="M32 0 C67.08 -2.96, 108.08 1.36, 135.2 0 C156.97 3.35, 163.95 8.81, 167.2 32 C164.75 58.99, 164.14 88.75, 167.2 134.4 C164.27 152.76, 157.27 164.39, 135.2 166.4 C100.85 170.01, 71.1 166.98, 32 166.4 C10.02 169.92, 2.86 158.82, 0 134.4 C-2.3 97.01, -0.46 61.87, 0 32 C0.51 11.07, 9.22 -0.93, 32 0" stroke="none" stroke-width="0" fill="#c2255c"></path><path d="M32 0 C63.13 1.43, 95.06 -1.49, 135.2 0 M32 0 C61.18 0.09, 91.29 0.1, 135.2 0 M135.2 0 C158.3 0.37, 167.47 9.14, 167.2 32 M135.2 0 C154.85 0.37, 167.14 11.21, 167.2 32 M167.2 32 C166.61 57.75, 168.38 82.27, 167.2 134.4 M167.2 32 C168.88 56.16, 168.6 80.28, 167.2 134.4 M167.2 134.4 C167.99 153.8, 156.57 166.9, 135.2 166.4 M167.2 134.4 C167.21 157.35, 154.57 167.79, 135.2 166.4 M135.2 166.4 C102.78 165.07, 65.93 165.18, 32 166.4 M135.2 166.4 C99.4 166.93, 62.56 166.06, 32 166.4 M32 166.4 C9 167.57, -1.08 153.76, 0 134.4 M32 166.4 C10.31 168.25, 0.98 156.69, 0 134.4 M0 134.4 C-0.99 112.33, -0.42 93.23, 0 32 M0 134.4 C2 105.79, 0.23 78.45, 0 32 M0 32 C1.92 11.11, 12.53 1.74, 32 0 M0 32 C-1.46 12.69, 12.75 -1.8, 32 0" stroke="#1e1e1e" stroke-width="2" fill="none"></path></g><g stroke-linecap="round" transform="translate(367.60003662109375 237.9999542236328) rotate(0 33.761532965495576 33.59999084472656)"><path d="M16.8 0 C26.53 1.44, 33.88 2.5, 50.72 0 C61.49 2.4, 64.56 6.6, 67.52 16.8 C69.46 25.2, 69.19 31.74, 67.52 50.4 C66.46 63.19, 63.8 67.83, 50.72 67.2 C36.86 68.31, 26.79 70.16, 16.8 67.2 C3.97 70.44, -2.25 61.52, 0 50.4 C2.93 37.72, -1.99 20.21, 0 16.8 C-0.59 6.7, 4.71 -0.34, 16.8 0" stroke="none" stroke-width="0" fill="#228be6"></path><path d="M16.8 0 C25.09 -1.11, 30.58 0.46, 50.72 0 M16.8 0 C27.67 0.15, 39.82 -0.34, 50.72 0 M50.72 0 C63.46 0.73, 66.39 6.61, 67.52 16.8 M50.72 0 C62.51 -1.42, 67.63 7.49, 67.52 16.8 M67.52 16.8 C66.72 29.72, 65.83 43.55, 67.52 50.4 M67.52 16.8 C66.48 26.55, 67.47 35.82, 67.52 50.4 M67.52 50.4 C68.41 60.39, 60.09 65.98, 50.72 67.2 M67.52 50.4 C68.08 61.98, 61.25 68.63, 50.72 67.2 M50.72 67.2 C42.51 68.51, 35.2 67.79, 16.8 67.2 M50.72 67.2 C42.5 67.06, 32.23 66.74, 16.8 67.2 M16.8 67.2 C5.1 67.08, 0.93 60.06, 0 50.4 M16.8 67.2 C5.41 66.03, -2.05 61.54, 0 50.4 M0 50.4 C2.01 40.01, -0.11 26.9, 0 16.8 M0 50.4 C-0.16 41, 0.78 31.04, 0 16.8 M0 16.8 C1.11 4.28, 3.62 0.9, 16.8 0 M0 16.8 C-0.67 5.53, 5.74 -0.51, 16.8 0" stroke="#1e1e1e" stroke-width="2" fill="none"></path></g><g stroke-linecap="round" transform="translate(10 237.9999542236328) rotate(0 33.761532965495576 33.59999084472656)"><path d="M16.8 0 C30.59 3.75, 40.88 -0.41, 50.72 0 C64.15 -0.17, 67.33 5, 67.52 16.8 C65.11 31.21, 66.24 39.68, 67.52 50.4 C67.93 64.32, 63.06 67.29, 50.72 67.2 C41.27 68.28, 30.22 70.29, 16.8 67.2 C2.18 65.67, -0.75 61.11, 0 50.4 C-1.29 36.24, -2.45 28.55, 0 16.8 C-1.04 4.78, 6.22 -1.14, 16.8 0" stroke="none" stroke-width="0" fill="#228be6"></path><path d="M16.8 0 C30.76 1.1, 41.69 -1.5, 50.72 0 M16.8 0 C29.22 0.44, 41.26 -0.92, 50.72 0 M50.72 0 C63.87 0.8, 67.94 4.66, 67.52 16.8 M50.72 0 C64.1 -1.03, 66.74 3.71, 67.52 16.8 M67.52 16.8 C66.35 22.62, 66.04 32.63, 67.52 50.4 M67.52 16.8 C66.58 24.23, 68.03 31.4, 67.52 50.4 M67.52 50.4 C66.46 59.9, 60.58 67.21, 50.72 67.2 M67.52 50.4 C65.75 61.16, 59.68 68.14, 50.72 67.2 M50.72 67.2 C38.86 67.37, 28.67 67.8, 16.8 67.2 M50.72 67.2 C39.37 66.75, 28.17 66.94, 16.8 67.2 M16.8 67.2 C4.36 65.93, -1.54 60.63, 0 50.4 M16.8 67.2 C7.87 69.11, -2.05 63.02, 0 50.4 M0 50.4 C-0.96 38.14, 1.26 27.09, 0 16.8 M0 50.4 C0.56 40.32, 0.14 27.78, 0 16.8 M0 16.8 C0.57 6.55, 6.03 -0.17, 16.8 0 M0 16.8 C-0.77 3.34, 5.42 -0.44, 16.8 0" stroke="#1e1e1e" stroke-width="2" fill="none"></path></g><g stroke-linecap="round" transform="translate(10 73.19996643066406) rotate(0 33.761532965495576 33.59999084472656)"><path d="M16.8 0 C25.55 -0.19, 40.31 -0.46, 50.72 0 C64.88 -3.34, 67.79 7.17, 67.52 16.8 C68.91 26.37, 64.6 32.23, 67.52 50.4 C66.58 63.6, 63.87 67.71, 50.72 67.2 C36.23 66.67, 25.5 65.99, 16.8 67.2 C6.46 67.46, 2.87 60.36, 0 50.4 C2.15 42.51, -3.09 29.75, 0 16.8 C-0.02 3.43, 8.78 -1.99, 16.8 0" stroke="none" stroke-width="0" fill="#228be6"></path><path d="M16.8 0 C22.16 1.43, 29.89 -0.95, 50.72 0 M16.8 0 C25.78 0.33, 33.82 0.47, 50.72 0 M50.72 0 C60.54 -1.55, 67.38 5.17, 67.52 16.8 M50.72 0 C62.54 0.74, 68.77 4.42, 67.52 16.8 M67.52 16.8 C69.58 23.84, 69.01 31.61, 67.52 50.4 M67.52 16.8 C66.99 27.3, 67.79 37.06, 67.52 50.4 M67.52 50.4 C68.96 59.71, 60.01 66.47, 50.72 67.2 M67.52 50.4 C65.97 61.05, 62.98 68.26, 50.72 67.2 M50.72 67.2 C41.15 67.97, 28.19 67.23, 16.8 67.2 M50.72 67.2 C41.24 66.52, 31.9 67, 16.8 67.2 M16.8 67.2 C7.3 68.16, 1.03 60.49, 0 50.4 M16.8 67.2 C7.47 67.45, -1.09 59.67, 0 50.4 M0 50.4 C-1.91 35.98, -1.89 23.86, 0 16.8 M0 50.4 C-0.9 40.79, -0.66 32.63, 0 16.8 M0 16.8 C-1.01 3.75, 5.41 1.37, 16.8 0 M0 16.8 C-1.23 5.21, 5.7 -1.98, 16.8 0" stroke="#1e1e1e" stroke-width="2" fill="none"></path></g><g stroke-linecap="round" transform="translate(367.60003662109375 73.19996643066406) rotate(0 33.761532965495576 33.59999084472656)"><path d="M16.8 0 C28.33 -0.23, 42.64 0.35, 50.72 0 C63.64 -1.21, 66.49 5.22, 67.52 16.8 C65.12 26.36, 70.15 36.56, 67.52 50.4 C68.13 64.58, 60.1 68.73, 50.72 67.2 C40.46 66.78, 30.72 66.2, 16.8 67.2 C7.77 65.93, 1.51 64.64, 0 50.4 C-2.29 39.31, -2.51 29.22, 0 16.8 C2.37 7.83, 3.16 -2.37, 16.8 0" stroke="none" stroke-width="0" fill="#228be6"></path><path d="M16.8 0 C31.27 -1.7, 42.01 -0.62, 50.72 0 M16.8 0 C26.25 0.21, 35.74 -0.97, 50.72 0 M50.72 0 C60.42 0.07, 68.38 5.12, 67.52 16.8 M50.72 0 C63.31 0.44, 68.79 3.96, 67.52 16.8 M67.52 16.8 C68.87 23.58, 67.28 31.55, 67.52 50.4 M67.52 16.8 C68.4 24.91, 68.24 33.7, 67.52 50.4 M67.52 50.4 C65.95 61.37, 61.78 69.13, 50.72 67.2 M67.52 50.4 C66.92 59.52, 63.84 66.88, 50.72 67.2 M50.72 67.2 C37.6 67.32, 25.94 66.07, 16.8 67.2 M50.72 67.2 C37.67 67.93, 25.45 67.92, 16.8 67.2 M16.8 67.2 C4.9 68.82, -1.68 63.34, 0 50.4 M16.8 67.2 C6.83 68.69, -0.91 63.11, 0 50.4 M0 50.4 C0.07 38.24, -2.1 24.12, 0 16.8 M0 50.4 C-1.25 43.17, -1.1 36.84, 0 16.8 M0 16.8 C-0.23 6.52, 5.52 0.54, 16.8 0 M0 16.8 C1.75 5.38, 7.84 -2.14, 16.8 0" stroke="#1e1e1e" stroke-width="2" fill="none"></path></g><g stroke-linecap="round" transform="translate(188.63855248372317 10) rotate(0 33.761532965495576 33.59999084472656)"><path d="M16.8 0 C24.89 1.86, 30.36 -0.92, 50.72 0 C58.83 2.68, 67.23 3.45, 67.52 16.8 C64.95 28.13, 64.89 37.89, 67.52 50.4 C65.72 62.68, 59.57 63.64, 50.72 67.2 C37.04 69.06, 25.81 64.85, 16.8 67.2 C2.56 69.15, 2.45 58.94, 0 50.4 C-3.33 43.23, -0.62 30.46, 0 16.8 C1.39 3.59, 3.71 -1.15, 16.8 0" stroke="none" stroke-width="0" fill="#228be6"></path><path d="M16.8 0 C24 0.6, 32.83 0.84, 50.72 0 M16.8 0 C28.64 0.56, 41.85 0.04, 50.72 0 M50.72 0 C63.28 -1.82, 66 6.98, 67.52 16.8 M50.72 0 C61 1.93, 65.63 5.58, 67.52 16.8 M67.52 16.8 C66.9 25.31, 66.34 34.98, 67.52 50.4 M67.52 16.8 C66.67 29.01, 66.94 39.94, 67.52 50.4 M67.52 50.4 C67.88 62.98, 63.37 67.7, 50.72 67.2 M67.52 50.4 C68.39 61.29, 60.12 68.05, 50.72 67.2 M50.72 67.2 C40.64 67.5, 30.99 68.62, 16.8 67.2 M50.72 67.2 C39.93 67.15, 28.01 66.41, 16.8 67.2 M16.8 67.2 C5.44 66.77, -0.46 63.56, 0 50.4 M16.8 67.2 C6.68 67.94, 2.24 62.3, 0 50.4 M0 50.4 C0.76 38.78, 1.93 25.75, 0 16.8 M0 50.4 C-0.42 41.48, 0.67 33.87, 0 16.8 M0 16.8 C0.48 6.36, 6.59 1.58, 16.8 0 M0 16.8 C-1.92 3.56, 4.05 -0.48, 16.8 0" stroke="#1e1e1e" stroke-width="2" fill="none"></path></g><g stroke-linecap="round" transform="translate(188.63855248372317 315.6000518798828) rotate(0 33.761532965495576 33.59999084472656)"><path d="M16.8 0 C24.82 -3.54, 38.56 -1.77, 50.72 0 C59.47 0.37, 64.52 9.1, 67.52 16.8 C64.67 30.4, 66.29 40.69, 67.52 50.4 C70.34 58.95, 60.86 66.51, 50.72 67.2 C40.46 69.29, 30.35 65.03, 16.8 67.2 C2.89 67.32, 1.53 60.74, 0 50.4 C-2.68 36.26, -0.89 28.88, 0 16.8 C2.56 3.09, 5.3 -2.89, 16.8 0" stroke="none" stroke-width="0" fill="#228be6"></path><path d="M16.8 0 C28.68 0.14, 40.96 0.5, 50.72 0 M16.8 0 C25.94 -1.04, 36.11 -1.07, 50.72 0 M50.72 0 C60.27 1.43, 67.75 7.48, 67.52 16.8 M50.72 0 C59.78 0.07, 68.21 5.94, 67.52 16.8 M67.52 16.8 C69.23 23.54, 68.71 32.58, 67.52 50.4 M67.52 16.8 C66.46 28.63, 67.8 39.93, 67.52 50.4 M67.52 50.4 C67.21 60.96, 63.88 65.71, 50.72 67.2 M67.52 50.4 C68.44 60.91, 62.23 65.22, 50.72 67.2 M50.72 67.2 C42.42 67.93, 35.43 65.59, 16.8 67.2 M50.72 67.2 C38.46 66.93, 27.13 67.18, 16.8 67.2 M16.8 67.2 C5.16 67.77, 1.74 61.2, 0 50.4 M16.8 67.2 C6.15 66.59, 2.15 60.14, 0 50.4 M0 50.4 C-1.63 39.22, 0.53 29.88, 0 16.8 M0 50.4 C-0.18 41.46, -0.12 31.48, 0 16.8 M0 16.8 C-0.31 5.78, 7.48 1.91, 16.8 0 M0 16.8 C-2.07 4.92, 7.2 -2.28, 16.8 0" stroke="#1e1e1e" stroke-width="2" fill="none"></path></g><g stroke-linecap="round"><g transform="translate(178.3113197406096 146.97758702896604) rotate(0 44.06059301640445 47.85201411482011)" fill-rule="evenodd"><path d="M0.03 -1.18 C-0.18 12.94, 0.44 70.11, 0.33 86.47 C0.22 102.83, -1.14 94.7, -0.64 96.99 C-0.15 99.27, -0.36 99.34, 3.32 100.19 C7 101.05, 14.54 101.48, 21.43 102.11 C28.33 102.73, 35.93 103.83, 44.69 103.95 C53.46 104.06, 67.2 103.32, 74.05 102.8 C80.9 102.28, 83.28 102.15, 85.79 100.81 C88.31 99.47, 88.95 96.63, 89.14 94.76 C89.33 92.89, 86.74 104.24, 86.93 89.59 C87.13 74.95, 90.01 21.93, 90.3 6.88 C90.58 -8.18, 89.77 0.88, 88.63 -0.74 C87.49 -2.35, 86.67 -2.11, 83.44 -2.79 C80.21 -3.48, 76.45 -3.88, 69.27 -4.84 C62.08 -5.81, 48.6 -8.09, 40.33 -8.6 C32.05 -9.1, 26.03 -8.71, 19.6 -7.87 C13.18 -7.03, 5.04 -5.09, 1.77 -3.56 C-1.51 -2.03, -0.15 1.1, -0.04 1.32 C0.07 1.54, 2.02 -2.24, 2.42 -2.25" stroke="none" stroke-width="0" fill="#228be6" fill-rule="evenodd"></path><path d="M0.74 0.73 C0.8 15.1, 1.27 71.41, 1.26 87.22 C1.26 103.03, 0.31 93.57, 0.71 95.58 C1.11 97.6, 0.22 97.87, 3.66 99.33 C7.1 100.79, 14.22 103.52, 21.34 104.35 C28.47 105.18, 37.85 104.5, 46.39 104.31 C54.92 104.11, 66.01 104.05, 72.54 103.17 C79.07 102.28, 82.99 100.28, 85.57 98.98 C88.15 97.68, 87.66 97.36, 88.01 95.35 C88.35 93.34, 87.43 101.65, 87.62 86.93 C87.82 72.21, 89.22 21.62, 89.16 7.03 C89.09 -7.57, 88.42 1.11, 87.23 -0.65 C86.03 -2.41, 84.73 -2.44, 81.98 -3.53 C79.22 -4.62, 77.45 -6.37, 70.71 -7.2 C63.98 -8.03, 50 -8.53, 41.57 -8.51 C33.13 -8.48, 26.27 -7.95, 20.08 -7.06 C13.89 -6.18, 7.7 -4.53, 4.43 -3.21 C1.16 -1.88, 1.27 0.36, 0.46 0.88 C-0.35 1.39, -0.25 0.04, -0.41 -0.13 M-0.33 0.07 C-0.42 14.65, 0.72 69.59, 0.83 85.71 C0.93 101.82, -0.13 94.37, 0.31 96.76 C0.74 99.15, 0.09 98.65, 3.45 100.04 C6.8 101.43, 13.07 104.6, 20.41 105.1 C27.75 105.59, 38.69 103.55, 47.49 103.02 C56.29 102.48, 67.09 102.61, 73.23 101.91 C79.37 101.2, 82.13 100.07, 84.32 98.76 C86.52 97.46, 85.76 96.14, 86.39 94.07 C87.02 91.99, 88.1 100.66, 88.11 86.3 C88.11 71.94, 86.85 22.5, 86.45 7.91 C86.04 -6.68, 86.37 0.71, 85.68 -1.24 C84.98 -3.19, 84.83 -2.76, 82.29 -3.8 C79.75 -4.84, 77.27 -6.66, 70.44 -7.48 C63.61 -8.31, 49.59 -8.5, 41.29 -8.76 C33 -9.03, 26.97 -10.15, 20.67 -9.06 C14.37 -7.97, 7.06 -4.01, 3.52 -2.21 C-0.02 -0.41, -0.25 1.36, -0.56 1.73 C-0.87 2.11, 1.6 0.07, 1.64 0.05" stroke="#0a11d3" stroke-width="1" fill="none"></path></g></g><mask></mask><g stroke-linecap="round"><g transform="translate(178.998681330107 212.2677150597536) rotate(0 44.15404313987263 4.448651936218301)"><path d="M0.97 1.17 C1.35 1.65, 1.27 2.76, 3.02 3.64 C4.77 4.52, 7.53 5.4, 11.48 6.43 C15.43 7.47, 20.98 9.44, 26.74 9.85 C32.5 10.25, 38.64 9.14, 46.03 8.87 C53.43 8.61, 64.65 9.11, 71.12 8.25 C77.59 7.39, 81.99 5.14, 84.87 3.73 C87.75 2.31, 87.93 0.5, 88.41 -0.25 M0.02 0.73 C0.24 1.33, 0.12 3.93, 2.44 5.04 C4.75 6.14, 9.73 6.92, 13.91 7.36 C18.09 7.79, 21.86 7.37, 27.52 7.65 C33.19 7.93, 40.4 9.07, 47.91 9.01 C55.42 8.95, 66.35 8.38, 72.58 7.3 C78.81 6.21, 82.81 3.81, 85.29 2.51 C87.77 1.21, 86.75 -0.29, 87.44 -0.49" stroke="#0a11d3" stroke-width="1" fill="none"></path></g></g><mask></mask><g stroke-linecap="round"><g transform="translate(177.9049398180455 179.19356049768183) rotate(0 44.15404313987263 4.448651936218301)"><path d="M0.69 -0.27 C0.77 0.07, -0.67 1.8, 1.44 3.16 C3.56 4.51, 9.44 6.94, 13.39 7.86 C17.33 8.79, 19.56 8.42, 25.12 8.69 C30.67 8.97, 39.13 9.57, 46.71 9.51 C54.3 9.45, 64.17 9.3, 70.61 8.32 C77.06 7.35, 82.54 5.2, 85.4 3.69 C88.25 2.17, 87.08 -0.06, 87.76 -0.79 M-0.4 -1.45 C-0.03 -0.47, 1.43 3.08, 3.69 4.3 C5.95 5.52, 9.6 5, 13.16 5.88 C16.72 6.75, 19.7 8.86, 25.05 9.55 C30.41 10.23, 37.5 10.35, 45.29 9.99 C53.08 9.63, 65 8.67, 71.8 7.41 C78.6 6.15, 83.04 3.9, 86.1 2.44 C89.15 0.99, 89.72 -0.54, 90.11 -1.3" stroke="#0a11d3" stroke-width="1" fill="none"></path></g></g><mask></mask><g stroke-linecap="round" transform="translate(176.7841171318838 138.95289080186936) rotate(0 43.82537305427094 8.863351988406833)"><path d="M49.31 -0.07 C58.32 -0.11, 69.78 0.94, 76.17 2.3 C82.56 3.66, 87.21 6.18, 87.68 8.09 C88.14 10, 84.58 12.18, 78.95 13.75 C73.33 15.32, 63.02 16.9, 53.92 17.49 C44.83 18.08, 32.87 18.05, 24.41 17.28 C15.94 16.5, 6.83 14.67, 3.11 12.85 C-0.61 11.03, -0.67 8.23, 2.11 6.34 C4.89 4.46, 11.73 2.54, 19.82 1.56 C27.91 0.58, 45.06 0.61, 50.64 0.48 C56.22 0.35, 53.27 0.76, 53.28 0.77 M36.99 0.37 C45.77 -0.01, 58.89 0.86, 66.9 1.89 C74.91 2.92, 81.96 4.75, 85.05 6.53 C88.14 8.31, 88.8 10.83, 85.42 12.56 C82.04 14.28, 73.19 15.99, 64.77 16.86 C56.35 17.73, 44.2 18.28, 34.91 17.76 C25.62 17.24, 14.83 15.34, 9.03 13.73 C3.23 12.11, -0.12 9.86, 0.13 8.07 C0.37 6.28, 4.26 4.37, 10.5 2.97 C16.74 1.58, 33.05 0.18, 37.57 -0.3 C42.08 -0.77, 37.49 -0.18, 37.59 0.12" stroke="none" stroke-width="0" fill="#fff"></path><path d="M52.93 0.24 C61.73 0.52, 72.75 1.76, 78.55 3.26 C84.35 4.76, 88.08 7.37, 87.72 9.26 C87.35 11.15, 82.7 13.11, 76.35 14.6 C69.99 16.08, 58.92 17.87, 49.59 18.15 C40.26 18.42, 28.3 17.34, 20.36 16.25 C12.42 15.17, 4.73 13.36, 1.96 11.63 C-0.82 9.9, 0.13 7.7, 3.7 5.85 C7.26 4, 14.91 1.53, 23.35 0.54 C31.78 -0.45, 49.01 -0.14, 54.31 -0.1 C59.6 -0.07, 55.29 0.5, 55.11 0.74 M51.93 0.05 C60.92 0.39, 72.46 2.4, 78.41 3.83 C84.36 5.27, 87.91 6.84, 87.65 8.67 C87.4 10.5, 83.08 13.27, 76.87 14.82 C70.66 16.36, 59.76 17.69, 50.41 17.97 C41.07 18.25, 28.77 17.61, 20.82 16.49 C12.87 15.37, 5.81 13.1, 2.71 11.26 C-0.39 9.41, -1.17 7.12, 2.23 5.42 C5.64 3.72, 14.8 1.81, 23.12 1.04 C31.45 0.27, 47.3 0.94, 52.19 0.8 C57.08 0.66, 52.66 0.06, 52.46 0.22" stroke="#0a11d3" stroke-width="1" fill="none"></path></g><g stroke-linecap="round" transform="translate(248.29384943246438 163.52869367900288) rotate(0 6.423028523489908 6.970952181208048)"><path d="M7.93 -0.39 C9.19 -0.27, 10.59 1.03, 11.41 2.18 C12.22 3.32, 12.84 4.96, 12.84 6.5 C12.84 8.04, 12.23 10.1, 11.4 11.41 C10.58 12.71, 9.31 13.97, 7.87 14.32 C6.44 14.67, 4 14.34, 2.8 13.52 C1.6 12.71, 1.06 10.9, 0.67 9.44 C0.27 7.98, 0.06 6.1, 0.41 4.75 C0.77 3.4, 1.52 2.03, 2.82 1.33 C4.11 0.63, 7.27 0.79, 8.2 0.55 C9.13 0.3, 8.56 -0.18, 8.41 -0.13 M7.97 0.72 C9.24 0.94, 10.18 1.92, 11.11 3.05 C12.05 4.18, 13.57 6.06, 13.57 7.51 C13.57 8.95, 12.21 10.63, 11.13 11.72 C10.04 12.81, 8.5 13.95, 7.07 14.04 C5.64 14.14, 3.62 13.18, 2.52 12.29 C1.43 11.4, 0.9 10, 0.49 8.7 C0.08 7.4, -0.47 5.85, 0.06 4.48 C0.6 3.12, 2.4 1.26, 3.71 0.51 C5.03 -0.25, 7.23 -0.09, 7.94 -0.05 C8.65 -0.01, 8.03 0.53, 7.97 0.75" stroke="none" stroke-width="0" fill="#fff"></path><path d="M5.7 -0.12 C7.04 -0.38, 8.86 0.36, 10.01 1.16 C11.17 1.97, 12.28 3.19, 12.64 4.7 C13.01 6.2, 12.76 8.79, 12.2 10.18 C11.64 11.58, 10.49 12.46, 9.27 13.07 C8.04 13.68, 6.11 14.09, 4.86 13.83 C3.6 13.57, 2.55 12.8, 1.73 11.52 C0.91 10.23, -0.1 7.75, -0.07 6.14 C-0.03 4.53, 0.88 2.85, 1.96 1.87 C3.03 0.9, 5.61 0.54, 6.4 0.28 C7.19 0.03, 6.7 0.31, 6.71 0.35 M6.73 0.54 C8.09 0.37, 9.42 0.29, 10.42 1.15 C11.42 2.01, 12.48 4.11, 12.73 5.7 C12.97 7.28, 12.59 9.34, 11.87 10.63 C11.15 11.93, 9.6 13.07, 8.41 13.49 C7.22 13.9, 6.1 13.63, 4.74 13.11 C3.38 12.59, 0.95 11.57, 0.25 10.37 C-0.45 9.17, 0.25 7.22, 0.56 5.89 C0.86 4.56, 1.09 3.39, 2.1 2.39 C3.11 1.39, 5.99 0.14, 6.62 -0.12 C7.25 -0.37, 5.81 0.74, 5.87 0.86" stroke="#0a11d3" stroke-width="1" fill="none"></path></g><g stroke-linecap="round" transform="translate(248.29384943246438 194.13114753806335) rotate(0 6.423028523489908 6.970952181208048)"><path d="M6.11 -0.25 C7.34 -0.42, 9.13 0.02, 10.22 0.95 C11.32 1.88, 12.32 3.72, 12.69 5.33 C13.06 6.93, 13.15 9.14, 12.46 10.56 C11.77 11.98, 9.8 13.32, 8.54 13.84 C7.28 14.36, 6.11 14.17, 4.88 13.69 C3.64 13.21, 1.99 12.13, 1.12 10.94 C0.26 9.75, -0.53 8, -0.31 6.56 C-0.09 5.13, 1.24 3.5, 2.45 2.33 C3.65 1.15, 6.21 -0.12, 6.91 -0.48 C7.6 -0.83, 6.61 0, 6.59 0.18 M6.74 0.55 C8.1 0.57, 10.72 1.53, 11.7 2.54 C12.68 3.55, 12.71 5.17, 12.63 6.61 C12.56 8.04, 12.12 10.11, 11.25 11.18 C10.38 12.25, 8.66 12.76, 7.42 13.01 C6.18 13.26, 5.01 13.2, 3.82 12.67 C2.62 12.14, 0.78 11.17, 0.26 9.85 C-0.26 8.53, 0.21 6.21, 0.69 4.75 C1.16 3.29, 1.98 1.8, 3.1 1.09 C4.22 0.39, 6.74 0.6, 7.4 0.52 C8.07 0.44, 7.04 0.48, 7.08 0.62" stroke="none" stroke-width="0" fill="#fff"></path><path d="M6.64 0.05 C7.95 -0.03, 9.72 0.43, 10.72 1.49 C11.72 2.54, 12.44 4.89, 12.63 6.38 C12.82 7.88, 12.55 9.25, 11.85 10.46 C11.14 11.66, 9.6 13.07, 8.38 13.63 C7.17 14.19, 5.83 14.45, 4.55 13.82 C3.28 13.19, 1.43 11.29, 0.73 9.87 C0.03 8.45, 0.03 6.63, 0.36 5.29 C0.69 3.95, 1.62 2.67, 2.71 1.82 C3.8 0.98, 6.15 0.52, 6.91 0.22 C7.67 -0.09, 7.31 -0.06, 7.26 -0.02 M6.18 -0.36 C7.41 -0.57, 9.32 0.55, 10.37 1.59 C11.42 2.62, 12.27 4.4, 12.5 5.84 C12.73 7.29, 12.28 9.07, 11.73 10.25 C11.18 11.44, 10.52 12.43, 9.2 12.95 C7.87 13.46, 5.05 13.74, 3.76 13.35 C2.48 12.97, 2.1 11.74, 1.48 10.63 C0.85 9.51, -0.17 8.15, 0 6.66 C0.17 5.17, 1.52 2.68, 2.49 1.69 C3.45 0.7, 5.06 0.99, 5.79 0.72 C6.53 0.44, 6.77 0.06, 6.89 0.04" stroke="#0a11d3" stroke-width="1" fill="none"></path></g><g stroke-linecap="round" transform="translate(248.29384943246438 227.39194871255998) rotate(0 6.423028523489908 6.970952181208048)"><path d="M4.87 -0.2 C6.11 -0.59, 7.99 -0.1, 9.27 0.71 C10.55 1.52, 12.1 3.19, 12.57 4.64 C13.05 6.08, 12.52 8.03, 12.14 9.38 C11.75 10.74, 11.33 12.01, 10.27 12.78 C9.21 13.55, 7.26 14.11, 5.79 14.01 C4.32 13.9, 2.34 13.2, 1.45 12.17 C0.57 11.14, 0.44 9.48, 0.47 7.85 C0.51 6.22, 0.94 3.68, 1.67 2.39 C2.41 1.11, 4.19 0.53, 4.9 0.15 C5.6 -0.23, 5.81 -0.02, 5.92 0.13 M8.45 0.63 C9.76 0.78, 10.61 1.75, 11.27 2.88 C11.93 4, 12.54 6.03, 12.42 7.37 C12.3 8.71, 11.4 9.93, 10.57 10.91 C9.75 11.89, 8.78 12.93, 7.47 13.26 C6.16 13.58, 3.83 13.6, 2.71 12.85 C1.6 12.1, 1.11 10.2, 0.79 8.76 C0.47 7.33, 0.31 5.48, 0.81 4.24 C1.31 3, 2.62 1.94, 3.78 1.33 C4.95 0.72, 7.05 0.67, 7.81 0.6 C8.58 0.53, 8.34 0.85, 8.36 0.93" stroke="none" stroke-width="0" fill="#fff"></path><path d="M5.94 -0.2 C7.2 -0.34, 8.86 0.88, 9.96 1.76 C11.06 2.63, 12.19 3.68, 12.55 5.05 C12.9 6.42, 12.61 8.55, 12.12 9.98 C11.62 11.41, 10.81 13.09, 9.58 13.63 C8.34 14.17, 6.05 13.73, 4.69 13.23 C3.33 12.73, 2.13 11.72, 1.4 10.62 C0.68 9.53, 0.24 8.03, 0.35 6.64 C0.46 5.25, 1.05 3.39, 2.08 2.26 C3.11 1.12, 5.81 0.22, 6.52 -0.17 C7.24 -0.55, 6.43 -0.27, 6.36 -0.07 M7.58 0.24 C8.85 0.52, 10.35 1.73, 11.16 2.86 C11.98 4, 12.39 5.68, 12.47 7.04 C12.55 8.39, 12.61 9.91, 11.67 11 C10.72 12.09, 8.14 13.26, 6.81 13.59 C5.48 13.91, 4.75 13.53, 3.67 12.93 C2.59 12.33, 0.8 11.37, 0.32 9.96 C-0.17 8.54, 0.35 5.82, 0.78 4.44 C1.2 3.05, 1.61 2.37, 2.86 1.63 C4.11 0.89, 7.45 0.26, 8.28 0.01 C9.12 -0.24, 7.95 -0.09, 7.9 0.13" stroke="#0a11d3" stroke-width="1" fill="none"></path></g><g stroke-linecap="round"><g transform="translate(387.88145425807284 92.70476958988874) rotate(0 13.076466075713313 14.201698079597548)" fill-rule="evenodd"><path d="M1.23 1.02 C1.46 5.23, -0.73 20.33, -0.79 24.92 C-0.85 29.52, 0.54 27.71, 0.85 28.59 C1.15 29.48, -0.01 29.58, 1.06 30.23 C2.13 30.87, 5.13 32.5, 7.27 32.48 C9.42 32.47, 11.9 30.63, 13.93 30.14 C15.95 29.65, 17.34 29.77, 19.43 29.55 C21.52 29.34, 25.69 28.67, 26.46 28.85 C27.24 29.02, 23.86 31.43, 24.09 30.62 C24.33 29.81, 27.85 29.09, 27.87 23.99 C27.89 18.89, 24.21 4.17, 24.22 0.05 C24.23 -4.07, 27.65 -0.25, 27.93 -0.74 C28.21 -1.22, 27.17 -2.55, 25.9 -2.86 C24.62 -3.16, 22.26 -2.19, 20.29 -2.57 C18.32 -2.95, 16.81 -4.88, 14.08 -5.11 C11.36 -5.34, 5.77 -4.75, 3.94 -3.94 C2.11 -3.13, 4.1 -1.23, 3.1 -0.25 C2.1 0.74, -1.93 2.06, -2.06 1.98 C-2.2 1.91, 1.59 -0.42, 2.3 -0.67" stroke="none" stroke-width="0" fill="#228be6" fill-rule="evenodd"></path><path d="M1.15 -0.13 C1.2 4.41, 1.11 21.91, 0.8 26.6 C0.49 31.3, -0.75 27.37, -0.72 28.02 C-0.68 28.66, -0.26 30.08, 1 30.48 C2.27 30.88, 4.74 30.13, 6.88 30.39 C9.01 30.66, 11.44 31.98, 13.82 32.06 C16.2 32.14, 19.01 31.43, 21.16 30.86 C23.3 30.29, 25.97 29.28, 26.69 28.64 C27.41 28.01, 25.65 27.58, 25.46 27.06 C25.27 26.54, 25.39 29.62, 25.55 25.52 C25.72 21.42, 26.45 6.6, 26.46 2.46 C26.48 -1.69, 25.87 1.35, 25.65 0.66 C25.43 -0.03, 25.81 -1.32, 25.14 -1.69 C24.47 -2.06, 23.62 -1.32, 21.64 -1.56 C19.66 -1.79, 15.98 -2.81, 13.26 -3.09 C10.54 -3.37, 7.42 -3.55, 5.32 -3.24 C3.22 -2.93, 1.38 -1.81, 0.65 -1.23 C-0.08 -0.65, 1.18 -0.1, 0.93 0.24 C0.69 0.58, -0.76 0.74, -0.81 0.81 M0.3 -1.25 C0.2 3.04, -0.02 19.98, 0.22 25.04 C0.47 30.1, 1.66 28.56, 1.8 29.11 C1.94 29.66, 0.39 28.08, 1.07 28.33 C1.74 28.58, 3.5 30.06, 5.85 30.59 C8.2 31.12, 12.54 31.68, 15.17 31.53 C17.8 31.38, 19.76 30.26, 21.62 29.67 C23.47 29.07, 25.36 28.11, 26.28 27.95 C27.19 27.8, 27.16 29.24, 27.12 28.72 C27.07 28.21, 26.02 29.06, 26 24.87 C25.98 20.68, 26.69 7.65, 26.97 3.61 C27.26 -0.43, 27.93 1.69, 27.73 0.64 C27.54 -0.41, 26.88 -2.34, 25.82 -2.69 C24.76 -3.04, 23.39 -1.28, 21.4 -1.48 C19.41 -1.67, 16.48 -3.69, 13.89 -3.86 C11.31 -4.03, 7.74 -3.02, 5.89 -2.47 C4.05 -1.92, 3.77 -1.09, 2.81 -0.56 C1.86 -0.02, 0.44 0.4, 0.14 0.74 C-0.15 1.08, 0.82 1.75, 1.04 1.49" stroke="#0a11d3" stroke-width="1" fill="none"></path></g></g><mask></mask><g stroke-linecap="round"><g transform="translate(388.0854519778371 112.08181573985098) rotate(0 13.104200549664853 1.3202874075016666)"><path d="M-0.06 0.33 C0.19 0.38, 0.59 0.55, 1.18 0.83 C1.77 1.1, 2.34 1.59, 3.47 1.97 C4.61 2.35, 6.29 2.98, 7.99 3.11 C9.69 3.23, 11.41 2.86, 13.67 2.72 C15.92 2.57, 19.56 2.43, 21.52 2.24 C23.49 2.05, 24.72 2.01, 25.45 1.57 C26.18 1.13, 25.87 -0.09, 25.91 -0.42 M-0.76 0.02 C-0.51 0.37, 0.37 0.94, 1 1.36 C1.63 1.77, 1.81 2.36, 3.02 2.49 C4.23 2.62, 6.36 2.08, 8.28 2.14 C10.21 2.21, 12.5 2.94, 14.58 2.87 C16.65 2.79, 18.86 1.96, 20.73 1.68 C22.6 1.41, 24.77 1.63, 25.81 1.23 C26.84 0.83, 26.87 -0.6, 26.95 -0.73" stroke="#0a11d3" stroke-width="1" fill="none"></path></g></g><mask></mask><g stroke-linecap="round"><g transform="translate(387.7608473186864 102.26594558229758) rotate(0 13.104200549664853 1.3202874075016666)"><path d="M0.33 0.49 C0.3 0.66, -0.17 0.63, 0.36 0.96 C0.89 1.29, 2.23 2.22, 3.51 2.49 C4.79 2.75, 6.31 2.43, 8.02 2.55 C9.73 2.67, 11.63 3.22, 13.78 3.22 C15.93 3.21, 18.91 2.95, 20.92 2.53 C22.93 2.12, 25.01 1.27, 25.85 0.73 C26.68 0.2, 25.91 -0.5, 25.92 -0.67 M-0.17 0.26 C-0.07 0.52, 0.88 1.34, 1.42 1.56 C1.96 1.78, 1.93 1.37, 3.08 1.6 C4.23 1.84, 6.66 2.91, 8.33 2.96 C10 3.02, 10.89 2.1, 13.08 1.96 C15.28 1.82, 19.54 2.18, 21.48 2.13 C23.43 2.07, 23.84 1.89, 24.75 1.63 C25.66 1.37, 26.65 0.73, 26.97 0.56" stroke="#0a11d3" stroke-width="1" fill="none"></path></g></g><mask></mask><g stroke-linecap="round" transform="translate(387.4282054083284 90.32317050558987) rotate(0 13.00665662367021 2.630498449041667)"><path d="M10.89 -0.08 C13.57 -0.2, 17.25 -0.26, 19.61 0.02 C21.97 0.3, 24.04 1.09, 25.04 1.58 C26.04 2.08, 26.57 2.49, 25.6 2.99 C24.64 3.48, 21.64 4.15, 19.28 4.55 C16.91 4.95, 14.16 5.37, 11.41 5.4 C8.67 5.44, 4.62 5.25, 2.8 4.77 C0.97 4.29, 0.38 3.16, 0.47 2.55 C0.56 1.93, 1.55 1.46, 3.32 1.08 C5.09 0.7, 9.55 0.44, 11.1 0.27 C12.64 0.1, 12.54 0.04, 12.61 0.05 M12.58 0.43 C15.09 0.49, 17.98 0.51, 20.03 0.85 C22.08 1.19, 24.18 1.94, 24.88 2.47 C25.58 3, 25.29 3.46, 24.24 4.01 C23.19 4.56, 20.95 5.58, 18.6 5.76 C16.26 5.95, 12.92 5.28, 10.19 5.1 C7.46 4.92, 3.93 5.01, 2.24 4.68 C0.56 4.34, -0.25 3.69, 0.09 3.09 C0.42 2.48, 2.35 1.46, 4.26 1.05 C6.16 0.65, 10.16 0.75, 11.49 0.67 C12.83 0.58, 12.05 0.62, 12.26 0.53" stroke="none" stroke-width="0" fill="#fff"></path><path d="M12.19 -0.14 C14.83 -0.21, 18.19 0.51, 20.39 0.87 C22.59 1.24, 24.6 1.63, 25.42 2.06 C26.23 2.5, 26.49 3.05, 25.29 3.46 C24.1 3.87, 20.92 4.26, 18.27 4.52 C15.62 4.78, 12.04 5.06, 9.42 5.02 C6.79 4.97, 4.1 4.66, 2.52 4.28 C0.94 3.89, -0.35 3.33, -0.08 2.73 C0.19 2.12, 2.03 1.05, 4.14 0.64 C6.26 0.22, 11.15 0.35, 12.61 0.22 C14.07 0.1, 13 -0.06, 12.89 -0.11 M11.9 -0.49 C14.62 -0.61, 18.52 0.58, 20.86 0.87 C23.2 1.16, 25.29 0.71, 25.94 1.25 C26.58 1.79, 25.91 3.51, 24.74 4.09 C23.57 4.67, 21.46 4.51, 18.93 4.73 C16.41 4.96, 12.32 5.55, 9.58 5.44 C6.84 5.33, 4.04 4.51, 2.47 4.07 C0.91 3.63, -0.1 3.36, 0.2 2.81 C0.49 2.26, 2.37 1.36, 4.24 0.78 C6.12 0.21, 10.25 -0.55, 11.45 -0.62 C12.65 -0.69, 11.41 0.31, 11.46 0.35" stroke="#0a11d3" stroke-width="1" fill="none"></path></g><g stroke-linecap="round" transform="translate(408.6511287621682 97.61686835678776) rotate(0 1.906250207741948 2.0688650213819955)"><path d="M1.58 0.24 C1.97 0.1, 2.38 0.03, 2.73 0.26 C3.08 0.5, 3.56 1.26, 3.66 1.64 C3.76 2.03, 3.52 2.14, 3.34 2.56 C3.15 2.98, 2.85 3.97, 2.56 4.18 C2.27 4.39, 1.92 3.9, 1.6 3.81 C1.29 3.72, 0.95 3.89, 0.66 3.64 C0.38 3.38, -0.07 2.81, -0.09 2.27 C-0.1 1.73, 0.25 0.78, 0.57 0.42 C0.9 0.06, 1.67 0.19, 1.86 0.12 C2.05 0.04, 1.74 -0.01, 1.72 -0.01 M2.24 -0.36 C2.72 -0.52, 3.1 -0.26, 3.41 0.04 C3.73 0.34, 4.08 0.89, 4.12 1.43 C4.17 1.98, 3.88 2.79, 3.7 3.3 C3.51 3.81, 3.42 4.37, 3 4.48 C2.58 4.59, 1.56 4.2, 1.16 3.97 C0.76 3.73, 0.71 3.42, 0.6 3.07 C0.49 2.72, 0.46 2.38, 0.51 1.89 C0.57 1.4, 0.61 0.4, 0.92 0.11 C1.24 -0.18, 2.17 0.1, 2.4 0.16 C2.62 0.22, 2.36 0.39, 2.27 0.47" stroke="none" stroke-width="0" fill="#fff"></path><path d="M1.71 -0.03 C2.11 -0.13, 2.97 0, 3.33 0.33 C3.68 0.65, 3.83 1.52, 3.85 1.94 C3.86 2.36, 3.67 2.53, 3.42 2.84 C3.16 3.15, 2.68 3.59, 2.32 3.81 C1.95 4.02, 1.56 4.26, 1.24 4.14 C0.92 4.03, 0.56 3.45, 0.39 3.1 C0.22 2.75, 0.21 2.43, 0.23 2.05 C0.25 1.66, 0.23 1.11, 0.52 0.8 C0.81 0.48, 1.78 0.33, 1.99 0.16 C2.19 0, 1.83 -0.19, 1.76 -0.2 M1.53 0.34 C1.9 0.33, 3.08 0.52, 3.38 0.73 C3.68 0.94, 3.25 1.17, 3.33 1.6 C3.4 2.02, 3.98 2.9, 3.83 3.28 C3.67 3.66, 2.81 3.74, 2.41 3.87 C2.02 4, 1.83 4.16, 1.46 4.06 C1.09 3.95, 0.41 3.57, 0.21 3.24 C0.02 2.92, 0.2 2.59, 0.28 2.1 C0.35 1.61, 0.45 0.7, 0.65 0.31 C0.84 -0.07, 1.21 -0.15, 1.45 -0.21 C1.68 -0.27, 2.06 -0.2, 2.06 -0.05" stroke="#0a11d3" stroke-width="1" fill="none"></path></g><g stroke-linecap="round" transform="translate(408.6511287621682 106.69917802004164) rotate(0 1.906250207741948 2.0688650213819955)"><path d="M1.85 -0.18 C2.18 -0.27, 2.51 0.03, 2.85 0.24 C3.19 0.46, 3.82 0.7, 3.91 1.09 C4 1.49, 3.51 2.13, 3.37 2.62 C3.23 3.1, 3.43 3.72, 3.08 4.01 C2.72 4.3, 1.63 4.49, 1.24 4.37 C0.84 4.24, 0.88 3.64, 0.72 3.26 C0.56 2.87, 0.38 2.47, 0.3 2.07 C0.22 1.67, 0 1.2, 0.24 0.86 C0.48 0.51, 1.53 0.14, 1.76 0.01 C1.99 -0.12, 1.66 0.03, 1.63 0.07 M1.35 0.25 C1.59 0.19, 2.16 0.45, 2.5 0.69 C2.84 0.93, 3.19 1.22, 3.41 1.67 C3.62 2.12, 3.83 3.04, 3.79 3.41 C3.75 3.78, 3.58 3.72, 3.18 3.89 C2.79 4.06, 1.88 4.47, 1.41 4.45 C0.95 4.42, 0.57 4.14, 0.38 3.75 C0.18 3.37, 0.27 2.56, 0.24 2.12 C0.21 1.67, -0.07 1.36, 0.2 1.07 C0.47 0.77, 1.55 0.51, 1.87 0.33 C2.2 0.15, 2.09 0.06, 2.15 -0.01" stroke="none" stroke-width="0" fill="#fff"></path><path d="M2.08 0.28 C2.41 0.33, 2.84 0.47, 3.18 0.72 C3.53 0.96, 4.12 1.37, 4.13 1.75 C4.15 2.12, 3.59 2.59, 3.27 2.96 C2.95 3.33, 2.54 3.8, 2.19 3.97 C1.84 4.15, 1.52 4.16, 1.17 4.01 C0.81 3.87, 0.22 3.55, 0.08 3.12 C-0.07 2.68, 0.14 1.84, 0.31 1.4 C0.48 0.96, 0.76 0.74, 1.09 0.5 C1.42 0.25, 2.16 0.02, 2.3 -0.1 C2.44 -0.21, 1.97 -0.24, 1.92 -0.19 M2.49 0.29 C2.91 0.3, 3.37 -0.1, 3.58 0.22 C3.79 0.55, 3.73 1.74, 3.74 2.23 C3.74 2.72, 3.88 2.81, 3.63 3.15 C3.37 3.49, 2.62 4.15, 2.19 4.26 C1.76 4.38, 1.38 4.04, 1.05 3.84 C0.73 3.65, 0.35 3.51, 0.25 3.11 C0.15 2.71, 0.37 1.98, 0.44 1.44 C0.51 0.91, 0.44 0.11, 0.69 -0.1 C0.94 -0.3, 1.72 0.25, 1.95 0.21 C2.18 0.17, 1.95 -0.41, 2.06 -0.35" stroke="#0a11d3" stroke-width="1" fill="none"></path></g><g stroke-linecap="round" transform="translate(408.6511287621682 116.57044185090788) rotate(0 1.906250207741948 2.0688650213819955)"><path d="M1.96 -0.04 C2.35 -0.02, 2.99 0.58, 3.25 0.87 C3.5 1.15, 3.49 1.22, 3.48 1.68 C3.47 2.13, 3.37 3.25, 3.2 3.6 C3.02 3.96, 2.75 3.71, 2.43 3.81 C2.11 3.91, 1.69 4.32, 1.29 4.21 C0.9 4.1, 0.24 3.66, 0.05 3.15 C-0.14 2.65, -0.01 1.65, 0.16 1.2 C0.32 0.74, 0.72 0.63, 1.06 0.42 C1.39 0.22, 1.98 0.04, 2.18 -0.04 C2.37 -0.11, 2.21 -0.05, 2.22 -0.04 M2.39 -0.46 C2.79 -0.43, 3.37 -0.1, 3.64 0.33 C3.9 0.76, 3.93 1.54, 3.98 2.12 C4.02 2.69, 4.2 3.45, 3.91 3.77 C3.63 4.1, 2.7 4.04, 2.28 4.06 C1.86 4.09, 1.68 4.08, 1.4 3.92 C1.13 3.76, 0.81 3.57, 0.62 3.1 C0.44 2.63, 0.17 1.55, 0.29 1.11 C0.4 0.68, 0.95 0.6, 1.32 0.49 C1.68 0.38, 2.34 0.44, 2.47 0.45 C2.59 0.46, 2.19 0.64, 2.09 0.55" stroke="none" stroke-width="0" fill="#fff"></path><path d="M2.4 -0.08 C2.82 0, 3.17 0.67, 3.38 0.97 C3.58 1.28, 3.67 1.42, 3.63 1.78 C3.58 2.14, 3.34 2.73, 3.11 3.14 C2.88 3.54, 2.57 4.07, 2.24 4.18 C1.91 4.3, 1.45 4.01, 1.14 3.83 C0.82 3.65, 0.56 3.48, 0.37 3.12 C0.18 2.77, -0.12 2.16, -0.01 1.72 C0.09 1.28, 0.66 0.83, 1.01 0.5 C1.35 0.18, 1.9 -0.13, 2.06 -0.23 C2.22 -0.32, 1.94 -0.18, 1.95 -0.06 M2.25 0.27 C2.62 0.19, 2.43 0.17, 2.73 0.46 C3.03 0.74, 3.94 1.56, 4.04 1.99 C4.15 2.42, 3.57 2.69, 3.34 3.04 C3.11 3.39, 3.04 3.89, 2.67 4.07 C2.3 4.24, 1.5 4.21, 1.13 4.09 C0.77 3.98, 0.66 3.83, 0.48 3.39 C0.29 2.95, 0.07 1.97, 0.04 1.44 C0.01 0.92, -0.04 0.49, 0.31 0.23 C0.66 -0.03, 1.96 -0.14, 2.17 -0.09 C2.37 -0.04, 1.54 0.54, 1.56 0.53" stroke="#0a11d3" stroke-width="1" fill="none"></path></g><g stroke-linecap="round"><g transform="translate(30.281417636979057 92.70476958988874) rotate(0 13.076466075713313 14.201698079597548)" fill-rule="evenodd"><path d="M-0.36 1.5 C-0.45 5.81, 0.81 21.05, 0.96 25.41 C1.12 29.76, 0.9 26.78, 0.57 27.62 C0.24 28.46, -1.82 29.66, -1.02 30.45 C-0.22 31.24, 3.01 32.16, 5.36 32.37 C7.72 32.58, 10.21 31.63, 13.11 31.71 C16.01 31.8, 20.99 33.52, 22.77 32.87 C24.55 32.21, 23.13 28.32, 23.8 27.79 C24.47 27.27, 26.39 29.82, 26.8 29.72 C27.2 29.62, 26.64 31.99, 26.22 27.18 C25.8 22.37, 24.35 5.09, 24.28 0.85 C24.2 -3.4, 26.13 2.03, 25.77 1.7 C25.42 1.37, 22.95 -0.63, 22.15 -1.13 C21.36 -1.63, 22.51 -1.34, 20.99 -1.29 C19.48 -1.24, 15.66 -0.59, 13.06 -0.84 C10.47 -1.09, 7.38 -2.95, 5.43 -2.79 C3.48 -2.64, 1.92 -0.74, 1.34 0.12 C0.76 0.97, 2.5 2.35, 1.94 2.35 C1.39 2.35, -1.48 0.61, -1.97 0.13" stroke="none" stroke-width="0" fill="#228be6" fill-rule="evenodd"></path><path d="M0.94 -0.51 C1.2 3.72, 0.84 21.51, 0.76 26.26 C0.67 31.01, 0.14 27.42, 0.44 28 C0.73 28.58, 1.74 29.42, 2.53 29.72 C3.32 30.03, 3.23 29.54, 5.16 29.82 C7.09 30.1, 11.49 31.21, 14.1 31.4 C16.71 31.59, 18.9 31.25, 20.81 30.96 C22.72 30.67, 24.52 30.28, 25.54 29.67 C26.56 29.06, 26.79 27.97, 26.93 27.32 C27.07 26.68, 26.51 30.12, 26.38 25.81 C26.25 21.49, 26.07 5.65, 26.13 1.45 C26.2 -2.75, 27 0.95, 26.76 0.6 C26.52 0.25, 25.87 -0.29, 24.68 -0.64 C23.48 -0.99, 21.68 -1.09, 19.59 -1.48 C17.51 -1.88, 14.51 -2.81, 12.16 -3.03 C9.81 -3.25, 7.38 -3.11, 5.48 -2.8 C3.58 -2.48, 1.82 -1.71, 0.76 -1.12 C-0.29 -0.54, -0.64 0.56, -0.83 0.71 C-1.01 0.85, -0.67 -0.11, -0.35 -0.25 M-0.02 1.83 C0.21 5.64, 0.17 19.97, 0.16 24.52 C0.15 29.06, -0.03 28.03, -0.1 29.08 C-0.17 30.14, -1.43 30.74, -0.27 30.84 C0.9 30.94, 4.25 29.76, 6.9 29.71 C9.54 29.65, 13.22 30.49, 15.59 30.51 C17.96 30.53, 19.6 29.99, 21.09 29.82 C22.58 29.66, 23.75 29.64, 24.52 29.52 C25.29 29.4, 25.24 29.82, 25.69 29.12 C26.15 28.42, 27.13 29.81, 27.26 25.31 C27.39 20.8, 26.72 6.19, 26.47 2.07 C26.22 -2.06, 25.99 1.07, 25.76 0.54 C25.54 0.02, 25.75 -0.77, 25.12 -1.09 C24.48 -1.41, 24.1 -0.92, 21.95 -1.36 C19.8 -1.81, 14.85 -3.69, 12.21 -3.76 C9.58 -3.84, 8.29 -2.35, 6.14 -1.79 C3.99 -1.23, 0.16 -0.93, -0.68 -0.39 C-1.52 0.15, 0.71 1.41, 1.12 1.45 C1.52 1.5, 2.18 -0.16, 1.74 -0.13" stroke="#0a11d3" stroke-width="1" fill="none"></path></g></g><mask></mask><g stroke-linecap="round"><g transform="translate(30.485415356743374 112.08181573985098) rotate(0 13.104200549664853 1.3202874075016666)"><path d="M-0.24 0.31 C-0.13 0.46, 0.4 0.96, 1.02 1.36 C1.64 1.75, 2.36 2.51, 3.46 2.67 C4.57 2.83, 5.98 2.29, 7.64 2.32 C9.3 2.35, 11.14 2.89, 13.4 2.84 C15.67 2.8, 19.2 2.38, 21.22 2.08 C23.23 1.78, 24.63 1.35, 25.49 1.04 C26.35 0.74, 26.33 0.43, 26.38 0.25 M0.64 -0.01 C0.67 -0.06, 0.36 0.18, 0.76 0.49 C1.15 0.81, 1.84 1.53, 3.01 1.88 C4.18 2.24, 5.9 2.43, 7.76 2.62 C9.62 2.82, 12.09 2.98, 14.18 3.06 C16.26 3.14, 18.32 3.55, 20.27 3.11 C22.22 2.67, 24.92 0.9, 25.88 0.44 C26.83 -0.03, 25.89 0.47, 25.99 0.29" stroke="#0a11d3" stroke-width="1" fill="none"></path></g></g><mask></mask><g stroke-linecap="round"><g transform="translate(30.16081069759261 102.26594558229758) rotate(0 13.104200549664853 1.3202874075016666)"><path d="M0.31 0.33 C0.38 0.53, 0.24 0.65, 0.89 0.95 C1.54 1.26, 3.15 1.92, 4.21 2.14 C5.27 2.36, 5.62 2.16, 7.23 2.29 C8.85 2.41, 11.65 2.86, 13.91 2.91 C16.16 2.96, 18.86 2.86, 20.76 2.58 C22.67 2.29, 24.35 1.72, 25.32 1.2 C26.29 0.68, 26.43 -0.32, 26.59 -0.55 M-0.2 0.02 C-0.21 0.32, -0.16 1.1, 0.56 1.55 C1.28 2, 3.04 2.58, 4.14 2.75 C5.24 2.91, 5.62 2.49, 7.14 2.56 C8.66 2.63, 10.93 3.22, 13.28 3.16 C15.63 3.1, 19.19 2.61, 21.24 2.2 C23.3 1.79, 24.77 1.2, 25.62 0.68 C26.46 0.16, 26.33 -0.67, 26.32 -0.92" stroke="#0a11d3" stroke-width="1" fill="none"></path></g></g><mask></mask><g stroke-linecap="round" transform="translate(29.828168787234603 90.32317050558987) rotate(0 13.00665662367021 2.630498449041667)"><path d="M14.66 0.39 C17.3 0.48, 20.26 0.52, 22.16 0.9 C24.06 1.28, 25.84 2.06, 26.05 2.68 C26.26 3.3, 25.14 4.21, 23.41 4.61 C21.67 5.02, 18.39 5, 15.66 5.1 C12.94 5.2, 9.43 5.37, 7.05 5.21 C4.67 5.05, 2.53 4.68, 1.39 4.12 C0.25 3.56, -0.54 2.5, 0.2 1.87 C0.94 1.23, 3.36 0.53, 5.82 0.31 C8.28 0.08, 13.33 0.58, 14.95 0.51 C16.56 0.44, 15.43 -0.12, 15.51 -0.12 M16.37 0.77 C19.13 0.84, 22.47 1.43, 24.12 1.68 C25.78 1.94, 26.6 1.86, 26.3 2.31 C26.01 2.75, 24.44 3.94, 22.35 4.35 C20.26 4.77, 16.61 4.66, 13.76 4.8 C10.91 4.94, 7.36 5.41, 5.25 5.22 C3.13 5.03, 1.85 4.19, 1.07 3.67 C0.3 3.15, -0.43 2.59, 0.61 2.1 C1.65 1.61, 4.79 0.97, 7.32 0.74 C9.85 0.5, 14.38 0.73, 15.79 0.67 C17.2 0.61, 15.81 0.33, 15.8 0.35" stroke="none" stroke-width="0" fill="#fff"></path><path d="M11.44 -0.38 C13.99 -0.45, 18.17 0.18, 20.47 0.59 C22.77 1.01, 24.54 1.55, 25.26 2.1 C25.99 2.65, 25.89 3.46, 24.83 3.88 C23.78 4.3, 21.43 4.42, 18.92 4.63 C16.41 4.84, 12.55 5.26, 9.8 5.14 C7.05 5.01, 3.98 4.27, 2.41 3.86 C0.84 3.46, 0.12 3.17, 0.37 2.71 C0.63 2.24, 1.97 1.49, 3.92 1.08 C5.87 0.67, 10.55 0.45, 12.07 0.25 C13.6 0.06, 13.04 -0.06, 13.08 -0.09 M12.49 -0.21 C15.1 -0.08, 18.27 0.75, 20.45 1.19 C22.62 1.63, 24.84 2.02, 25.53 2.43 C26.22 2.84, 25.7 3.18, 24.59 3.66 C23.47 4.14, 21.34 5.02, 18.81 5.3 C16.29 5.58, 12.24 5.65, 9.44 5.34 C6.64 5.02, 3.53 3.91, 2 3.39 C0.48 2.86, -0.11 2.65, 0.29 2.16 C0.7 1.68, 2.43 0.79, 4.42 0.49 C6.41 0.2, 10.84 0.55, 12.23 0.39 C13.62 0.23, 12.86 -0.48, 12.76 -0.47" stroke="#0a11d3" stroke-width="1" fill="none"></path></g><g stroke-linecap="round" transform="translate(51.051092141074434 97.61686835678776) rotate(0 1.906250207741948 2.0688650213819955)"><path d="M1.92 -0.27 C2.33 -0.34, 2.65 0.07, 2.97 0.36 C3.29 0.66, 3.68 1.11, 3.84 1.51 C3.99 1.91, 4.1 2.36, 3.92 2.77 C3.73 3.17, 3.09 3.68, 2.71 3.94 C2.33 4.2, 1.98 4.5, 1.65 4.35 C1.31 4.2, 0.98 3.47, 0.71 3.05 C0.44 2.63, 0.07 2.27, 0.02 1.83 C-0.02 1.4, 0.1 0.76, 0.44 0.42 C0.77 0.07, 1.83 -0.2, 2.03 -0.23 C2.22 -0.26, 1.63 0.11, 1.6 0.24 M2.25 0.4 C2.62 0.36, 3.24 0.42, 3.43 0.62 C3.63 0.81, 3.4 1.24, 3.42 1.57 C3.44 1.9, 3.72 2.24, 3.55 2.58 C3.37 2.93, 2.69 3.33, 2.37 3.64 C2.06 3.95, 1.95 4.56, 1.64 4.43 C1.33 4.31, 0.74 3.3, 0.53 2.87 C0.32 2.44, 0.31 2.27, 0.37 1.85 C0.43 1.43, 0.6 0.67, 0.9 0.33 C1.2 -0.01, 2.01 -0.13, 2.18 -0.19 C2.35 -0.25, 1.95 -0.19, 1.94 -0.05" stroke="none" stroke-width="0" fill="#fff"></path><path d="M1.95 0.07 C2.35 0.12, 3.11 0.2, 3.44 0.53 C3.76 0.86, 3.91 1.54, 3.92 2.05 C3.93 2.57, 3.8 3.26, 3.48 3.61 C3.16 3.97, 2.43 4.12, 2 4.16 C1.58 4.21, 1.29 4.07, 0.95 3.88 C0.6 3.69, 0.04 3.42, -0.07 3.02 C-0.18 2.62, 0.1 2, 0.3 1.49 C0.5 0.98, 0.78 0.24, 1.13 -0.03 C1.49 -0.3, 2.24 -0.09, 2.42 -0.11 C2.59 -0.12, 2.24 -0.16, 2.18 -0.12 M1.75 -0.1 C2.28 -0.19, 3.2 0.14, 3.59 0.42 C3.98 0.71, 4.1 1.11, 4.08 1.61 C4.06 2.11, 3.71 3.01, 3.49 3.4 C3.26 3.8, 3.1 3.91, 2.74 3.98 C2.39 4.06, 1.87 3.97, 1.38 3.85 C0.88 3.73, 0.02 3.56, -0.23 3.26 C-0.47 2.96, -0.23 2.49, -0.11 2.04 C0.01 1.6, 0.13 0.88, 0.5 0.62 C0.88 0.35, 1.98 0.62, 2.16 0.47 C2.33 0.32, 1.57 -0.27, 1.55 -0.27" stroke="#0a11d3" stroke-width="1" fill="none"></path></g><g stroke-linecap="round" transform="translate(51.051092141074434 106.69917802004164) rotate(0 1.906250207741948 2.0688650213819955)"><path d="M1.45 0.04 C1.84 -0.05, 2.64 0.19, 3.03 0.48 C3.42 0.77, 3.72 1.39, 3.8 1.78 C3.88 2.18, 3.7 2.49, 3.53 2.88 C3.35 3.27, 3.05 3.86, 2.74 4.11 C2.44 4.36, 2.13 4.53, 1.68 4.39 C1.24 4.25, 0.38 3.7, 0.08 3.28 C-0.22 2.85, -0.16 2.21, -0.12 1.82 C-0.08 1.43, 0.04 1.25, 0.31 0.92 C0.59 0.59, 1.24 -0.03, 1.52 -0.16 C1.8 -0.28, 1.89 0.13, 1.99 0.17 M2.61 0.43 C3.01 0.34, 3.37 0.13, 3.57 0.38 C3.77 0.64, 3.9 1.53, 3.8 1.98 C3.7 2.43, 3.29 2.69, 2.98 3.09 C2.66 3.49, 2.2 4.21, 1.93 4.37 C1.66 4.54, 1.71 4.28, 1.35 4.08 C0.99 3.88, -0.02 3.55, -0.22 3.16 C-0.43 2.76, -0.03 2.11, 0.12 1.69 C0.27 1.28, 0.38 0.93, 0.69 0.68 C1.01 0.43, 1.78 0.23, 2.02 0.18 C2.26 0.13, 2.02 0.33, 2.12 0.4" stroke="none" stroke-width="0" fill="#fff"></path><path d="M1.95 0.08 C2.35 0.12, 2.64 0.31, 2.94 0.6 C3.25 0.89, 3.65 1.44, 3.79 1.82 C3.93 2.19, 3.98 2.49, 3.79 2.85 C3.59 3.22, 3.03 3.83, 2.61 3.99 C2.19 4.15, 1.61 3.93, 1.26 3.82 C0.9 3.7, 0.66 3.61, 0.47 3.29 C0.29 2.97, 0.16 2.34, 0.14 1.9 C0.12 1.46, 0.09 0.98, 0.37 0.65 C0.64 0.31, 1.57 0.03, 1.81 -0.09 C2.05 -0.21, 1.79 -0.13, 1.8 -0.09 M1.59 0.48 C1.91 0.48, 2.56 0.49, 2.9 0.64 C3.24 0.8, 3.47 1, 3.64 1.41 C3.82 1.81, 4.11 2.63, 3.96 3.07 C3.81 3.51, 3.17 3.95, 2.73 4.04 C2.28 4.12, 1.66 3.74, 1.29 3.6 C0.92 3.45, 0.69 3.47, 0.53 3.16 C0.37 2.86, 0.31 2.15, 0.33 1.77 C0.35 1.4, 0.34 1.25, 0.65 0.9 C0.95 0.55, 2.04 -0.22, 2.16 -0.34 C2.28 -0.45, 1.41 0.1, 1.39 0.2" stroke="#0a11d3" stroke-width="1" fill="none"></path></g><g stroke-linecap="round" transform="translate(51.051092141074434 116.57044185090788) rotate(0 1.906250207741948 2.0688650213819955)"><path d="M1.91 0.03 C2.28 0.06, 2.87 0.26, 3.22 0.52 C3.57 0.78, 3.98 1.15, 4.03 1.58 C4.08 2.01, 3.72 2.66, 3.51 3.11 C3.29 3.56, 3.06 4.16, 2.75 4.27 C2.43 4.38, 2.01 3.97, 1.6 3.75 C1.19 3.54, 0.56 3.37, 0.29 3 C0.01 2.62, -0.16 1.95, -0.05 1.49 C0.07 1.03, 0.68 0.47, 0.97 0.26 C1.27 0.04, 1.57 0.18, 1.75 0.2 C1.93 0.21, 2.05 0.31, 2.05 0.37 M2.4 0.22 C2.65 0.14, 2.64 0.34, 2.86 0.54 C3.08 0.74, 3.67 1.02, 3.73 1.41 C3.79 1.8, 3.38 2.36, 3.21 2.87 C3.05 3.37, 3.05 4.3, 2.74 4.43 C2.44 4.55, 1.74 3.87, 1.38 3.63 C1.02 3.4, 0.74 3.4, 0.57 3.02 C0.4 2.65, 0.26 1.83, 0.36 1.37 C0.46 0.9, 0.85 0.47, 1.15 0.22 C1.45 -0.02, 1.95 -0.13, 2.15 -0.09 C2.35 -0.04, 2.29 0.49, 2.33 0.49" stroke="none" stroke-width="0" fill="#fff"></path><path d="M1.76 -0.18 C2.2 -0.26, 2.71 0.03, 3.06 0.34 C3.4 0.65, 3.77 1.27, 3.83 1.7 C3.89 2.13, 3.59 2.57, 3.41 2.94 C3.22 3.31, 3.1 3.69, 2.74 3.92 C2.39 4.15, 1.64 4.39, 1.28 4.3 C0.92 4.22, 0.76 3.87, 0.58 3.42 C0.4 2.98, 0.18 2.12, 0.2 1.64 C0.22 1.15, 0.44 0.82, 0.68 0.51 C0.92 0.21, 1.47 -0.1, 1.63 -0.19 C1.79 -0.29, 1.63 -0.08, 1.65 -0.05 M2.56 -0.05 C3.02 -0.03, 3.37 0.16, 3.57 0.53 C3.76 0.91, 3.72 1.77, 3.73 2.22 C3.74 2.67, 3.84 2.97, 3.63 3.25 C3.42 3.53, 3 3.77, 2.49 3.91 C1.98 4.04, 1 4.19, 0.59 4.08 C0.18 3.97, 0.15 3.65, 0.03 3.25 C-0.08 2.84, -0.28 2.04, -0.1 1.63 C0.08 1.23, 0.78 1.15, 1.09 0.83 C1.4 0.51, 1.56 -0.22, 1.75 -0.3 C1.94 -0.38, 2.18 0.22, 2.24 0.35" stroke="#0a11d3" stroke-width="1" fill="none"></path></g><g stroke-linecap="round"><g transform="translate(387.88145425807284 253.5047573828575) rotate(0 13.076466075713313 14.201698079597538)" fill-rule="evenodd"><path d="M-0.87 2.15 C-1.07 6.17, -0.73 19.92, -0.61 24.51 C-0.48 29.11, -0.36 28.79, -0.14 29.7 C0.08 30.61, -0.49 29.57, 0.71 29.96 C1.92 30.36, 4.8 31.79, 7.1 32.08 C9.4 32.36, 12.04 32.15, 14.52 31.67 C16.99 31.19, 20.46 29.29, 21.94 29.17 C23.42 29.06, 22.82 30.97, 23.4 30.97 C23.98 30.98, 25.23 30.32, 25.44 29.23 C25.65 28.14, 24.47 28.79, 24.66 24.44 C24.85 20.09, 26.37 6.99, 26.57 3.14 C26.76 -0.71, 26.17 2.45, 25.85 1.34 C25.52 0.23, 25.13 -2.81, 24.61 -3.52 C24.09 -4.23, 24.46 -3.03, 22.75 -2.91 C21.04 -2.8, 17.12 -3.03, 14.35 -2.83 C11.59 -2.62, 8.17 -1.56, 6.15 -1.66 C4.14 -1.76, 3.12 -3.43, 2.28 -3.43 C1.43 -3.44, 1.19 -2.39, 1.07 -1.69 C0.95 -1, 2.05 0.48, 1.56 0.73" stroke="none" stroke-width="0" fill="#228be6" fill-rule="evenodd"></path><path d="M-0.94 0.64 C-0.72 4.84, -0.02 21.18, 0.18 25.98 C0.37 30.79, 0.1 28.9, 0.24 29.47 C0.39 30.04, 0.19 29.1, 1.04 29.38 C1.89 29.66, 3.08 31.06, 5.33 31.17 C7.57 31.28, 11.87 30.1, 14.49 30.03 C17.12 29.95, 19.39 30.71, 21.05 30.72 C22.72 30.73, 23.71 30.56, 24.47 30.07 C25.23 29.57, 25.31 28.61, 25.62 27.75 C25.93 26.89, 26.42 29.31, 26.34 24.91 C26.25 20.51, 25.07 5.66, 25.1 1.36 C25.12 -2.94, 26.61 -0.49, 26.49 -0.9 C26.38 -1.3, 25.25 -0.97, 24.38 -1.08 C23.52 -1.19, 23.41 -1.34, 21.3 -1.54 C19.19 -1.74, 14.41 -2.09, 11.73 -2.3 C9.04 -2.52, 7.1 -3.01, 5.21 -2.82 C3.31 -2.63, 1.43 -1.74, 0.37 -1.16 C-0.7 -0.58, -1.22 0.34, -1.19 0.66 C-1.17 0.98, 0.51 0.69, 0.51 0.76 M0.77 -0.08 C0.93 3.7, -0.53 19.47, -0.72 24.09 C-0.92 28.72, -0.7 26.63, -0.4 27.66 C-0.09 28.7, -0.13 29.63, 1.12 30.32 C2.38 31, 5.24 31.48, 7.15 31.77 C9.05 32.07, 10.15 32.47, 12.54 32.09 C14.92 31.7, 19.12 29.78, 21.46 29.45 C23.8 29.13, 25.57 30.07, 26.55 30.13 C27.53 30.18, 27.25 30.19, 27.36 29.77 C27.47 29.35, 27.61 32.24, 27.2 27.6 C26.78 22.96, 25.19 6.82, 24.89 1.93 C24.58 -2.96, 25.4 -1.12, 25.36 -1.74 C25.32 -2.35, 25.41 -1.81, 24.67 -1.76 C23.92 -1.71, 23.07 -1.3, 20.89 -1.44 C18.7 -1.59, 14.09 -2.59, 11.56 -2.65 C9.03 -2.72, 7.25 -2.19, 5.72 -1.82 C4.19 -1.46, 3.23 -0.98, 2.38 -0.45 C1.52 0.09, 1.06 1.07, 0.56 1.38 C0.07 1.69, -0.29 1.67, -0.61 1.42" stroke="#0a11d3" stroke-width="1" fill="none"></path></g></g><mask></mask><g stroke-linecap="round"><g transform="translate(388.0854519778371 272.88180353281973) rotate(0 13.104200549664853 1.3202874075016737)"><path d="M0.29 0.04 C0.38 0.32, 0.25 0.94, 0.89 1.27 C1.53 1.59, 3.04 1.8, 4.14 1.99 C5.24 2.18, 5.84 2.23, 7.48 2.4 C9.13 2.57, 11.84 3.06, 14.02 3.03 C16.21 2.99, 18.7 2.61, 20.59 2.19 C22.49 1.78, 24.39 0.98, 25.38 0.55 C26.38 0.13, 26.46 -0.25, 26.56 -0.35 M-0.22 -0.41 C-0.21 -0.27, -0.14 -0.13, 0.57 0.36 C1.28 0.85, 2.87 2.12, 4.03 2.52 C5.19 2.91, 5.95 2.6, 7.52 2.73 C9.09 2.87, 11.21 3.52, 13.45 3.33 C15.69 3.15, 18.94 1.94, 20.98 1.61 C23.03 1.28, 24.83 1.73, 25.71 1.36 C26.59 0.99, 26.09 -0.28, 26.27 -0.61" stroke="#0a11d3" stroke-width="1" fill="none"></path></g></g><mask></mask><g stroke-linecap="round"><g transform="translate(387.7608473186864 263.06593337526635) rotate(0 13.104200549664853 1.3202874075016737)"><path d="M0.04 0.2 C0.25 0.43, 0.22 1.33, 0.8 1.63 C1.38 1.92, 2.44 1.77, 3.53 1.98 C4.61 2.2, 5.55 2.86, 7.31 2.91 C9.07 2.96, 11.83 2.36, 14.09 2.28 C16.35 2.21, 19.09 2.62, 20.88 2.47 C22.67 2.32, 23.98 1.86, 24.83 1.38 C25.68 0.91, 25.75 -0.03, 25.99 -0.36 M-0.6 -0.17 C-0.42 -0.11, -0.19 0.46, 0.43 0.9 C1.04 1.35, 1.97 2.07, 3.1 2.51 C4.24 2.94, 5.51 3.55, 7.25 3.5 C9 3.45, 11.19 2.46, 13.55 2.21 C15.91 1.96, 19.52 2.24, 21.41 2.03 C23.3 1.82, 24.21 1.4, 24.88 0.95 C25.54 0.51, 25.3 -0.51, 25.42 -0.63" stroke="#0a11d3" stroke-width="1" fill="none"></path></g></g><mask></mask><g stroke-linecap="round" transform="translate(387.4282054083284 251.12315829855862) rotate(0 13.00665662367021 2.630498449041668)"><path d="M11.06 0.32 C13.65 0.1, 17.42 -0.27, 19.87 -0.05 C22.32 0.16, 24.82 1.02, 25.75 1.63 C26.68 2.23, 26.54 2.99, 25.45 3.57 C24.36 4.14, 21.67 4.88, 19.21 5.08 C16.74 5.27, 13.35 4.92, 10.65 4.73 C7.96 4.54, 4.77 4.26, 3.05 3.93 C1.33 3.59, 0.35 3.22, 0.32 2.71 C0.3 2.2, 1.04 1.27, 2.88 0.85 C4.72 0.42, 9.84 0.27, 11.36 0.18 C12.89 0.08, 12.05 0.31, 12.03 0.28 M13.67 -0.65 C16.49 -0.63, 20.1 0.06, 22.03 0.64 C23.95 1.22, 24.78 2.35, 25.22 2.81 C25.67 3.28, 25.97 3.14, 24.69 3.43 C23.4 3.72, 20.21 4.18, 17.52 4.54 C14.83 4.9, 11.06 5.62, 8.55 5.58 C6.04 5.54, 3.76 4.77, 2.46 4.3 C1.17 3.83, 0.44 3.43, 0.77 2.77 C1.11 2.12, 2.51 0.94, 4.49 0.37 C6.46 -0.21, 11.2 -0.63, 12.65 -0.69 C14.09 -0.74, 13.19 -0.15, 13.15 0.04" stroke="none" stroke-width="0" fill="#fff"></path><path d="M15.47 0.23 C18.15 0.26, 21.79 0.15, 23.52 0.57 C25.24 1, 26.03 2.1, 25.82 2.79 C25.6 3.49, 24.08 4.34, 22.2 4.72 C20.33 5.09, 17.25 5.08, 14.57 5.03 C11.9 4.99, 8.54 4.77, 6.14 4.45 C3.75 4.12, 1.03 3.63, 0.2 3.11 C-0.62 2.58, 0.06 1.75, 1.19 1.31 C2.32 0.86, 4.41 0.58, 6.99 0.42 C9.56 0.25, 15.03 0.33, 16.62 0.32 C18.2 0.3, 16.69 0.37, 16.52 0.34 M11.39 0.35 C14.07 0.23, 17.75 -0.63, 20.18 -0.37 C22.61 -0.1, 25.13 1.35, 25.98 1.96 C26.83 2.57, 26.28 2.85, 25.28 3.31 C24.28 3.77, 22.49 4.41, 19.97 4.72 C17.46 5.03, 12.99 5.27, 10.21 5.17 C7.43 5.07, 4.97 4.47, 3.28 4.09 C1.59 3.72, 0.03 3.41, 0.08 2.91 C0.13 2.41, 1.75 1.54, 3.59 1.08 C5.44 0.62, 9.98 0.44, 11.15 0.17 C12.31 -0.11, 10.49 -0.55, 10.58 -0.57" stroke="#0a11d3" stroke-width="1" fill="none"></path></g><g stroke-linecap="round" transform="translate(408.6511287621682 258.41685614975654) rotate(0 1.906250207741948 2.06886502138199)"><path d="M2.16 0.05 C2.48 0.08, 2.63 0.47, 2.88 0.8 C3.14 1.13, 3.58 1.61, 3.68 2 C3.78 2.39, 3.69 2.79, 3.51 3.15 C3.33 3.52, 3.03 4.03, 2.59 4.19 C2.15 4.36, 1.31 4.29, 0.88 4.14 C0.45 3.98, 0.12 3.72, 0 3.26 C-0.13 2.8, 0.02 1.87, 0.14 1.39 C0.26 0.91, 0.37 0.6, 0.7 0.39 C1.03 0.18, 1.85 0.24, 2.1 0.14 C2.34 0.04, 2.21 -0.21, 2.16 -0.2 M1.3 0.42 C1.72 0.22, 2.53 -0.27, 3.01 -0.03 C3.48 0.2, 4.12 1.32, 4.17 1.82 C4.21 2.33, 3.59 2.66, 3.28 3.02 C2.98 3.38, 2.6 3.71, 2.34 3.97 C2.08 4.23, 2.03 4.62, 1.74 4.57 C1.45 4.51, 0.81 4.11, 0.59 3.64 C0.37 3.17, 0.45 2.31, 0.41 1.76 C0.38 1.21, 0.25 0.62, 0.39 0.34 C0.54 0.05, 1.05 0.19, 1.28 0.07 C1.5 -0.05, 1.63 -0.46, 1.73 -0.38" stroke="none" stroke-width="0" fill="#fff"></path><path d="M1.94 0.16 C2.29 0.12, 2.46 0.11, 2.77 0.3 C3.08 0.5, 3.64 0.9, 3.81 1.33 C3.98 1.76, 4.03 2.45, 3.81 2.89 C3.59 3.34, 2.96 3.88, 2.5 4.03 C2.04 4.17, 1.46 3.88, 1.06 3.76 C0.65 3.64, 0.29 3.65, 0.08 3.33 C-0.13 3, -0.31 2.26, -0.2 1.83 C-0.1 1.39, 0.32 1.05, 0.7 0.7 C1.07 0.35, 1.8 -0.11, 2.03 -0.26 C2.25 -0.42, 2.09 -0.28, 2.04 -0.24 M2.1 0.32 C2.49 0.31, 2.32 0.68, 2.62 0.92 C2.92 1.17, 3.78 1.34, 3.9 1.78 C4.03 2.21, 3.63 3.19, 3.39 3.53 C3.14 3.86, 2.79 3.67, 2.43 3.8 C2.08 3.92, 1.63 4.38, 1.24 4.28 C0.86 4.17, 0.3 3.55, 0.13 3.17 C-0.03 2.79, 0.14 2.42, 0.24 2 C0.35 1.57, 0.5 0.99, 0.79 0.61 C1.07 0.23, 1.87 -0.25, 1.98 -0.28 C2.09 -0.32, 1.49 0.27, 1.46 0.38" stroke="#0a11d3" stroke-width="1" fill="none"></path></g><g stroke-linecap="round" transform="translate(408.6511287621682 267.4991658130104) rotate(0 1.906250207741948 2.06886502138199)"><path d="M2.08 -0.29 C2.52 -0.34, 3.18 0.11, 3.5 0.46 C3.83 0.82, 4.03 1.36, 4.03 1.83 C4.03 2.31, 3.72 3, 3.48 3.31 C3.24 3.63, 2.96 3.67, 2.59 3.74 C2.23 3.81, 1.65 3.84, 1.28 3.73 C0.92 3.62, 0.65 3.44, 0.41 3.08 C0.16 2.71, -0.25 1.97, -0.2 1.54 C-0.14 1.11, 0.33 0.74, 0.73 0.5 C1.13 0.27, 2.02 0.26, 2.2 0.15 C2.39 0.05, 1.87 -0.11, 1.85 -0.13 M2.19 0.02 C2.44 0.1, 2.31 0.62, 2.63 0.82 C2.94 1.02, 3.87 0.92, 4.05 1.22 C4.23 1.52, 3.92 2.09, 3.7 2.6 C3.47 3.11, 3.01 4, 2.71 4.28 C2.41 4.56, 2.21 4.41, 1.88 4.3 C1.54 4.19, 1.04 4.07, 0.7 3.63 C0.37 3.2, -0.06 2.27, -0.12 1.69 C-0.19 1.1, -0.02 0.4, 0.31 0.12 C0.63 -0.16, 1.66 -0.01, 1.83 0 C2.01 0, 1.3 0.16, 1.35 0.16" stroke="none" stroke-width="0" fill="#fff"></path><path d="M1.97 -0.29 C2.37 -0.35, 2.69 0.11, 2.94 0.47 C3.19 0.82, 3.39 1.43, 3.47 1.83 C3.56 2.23, 3.6 2.57, 3.47 2.89 C3.34 3.2, 3.09 3.55, 2.69 3.71 C2.28 3.86, 1.43 3.95, 1.05 3.82 C0.68 3.7, 0.62 3.29, 0.45 2.96 C0.28 2.64, -0.01 2.26, 0.04 1.88 C0.1 1.5, 0.51 0.99, 0.77 0.7 C1.03 0.4, 1.46 0.24, 1.6 0.11 C1.74 -0.02, 1.61 -0.11, 1.62 -0.09 M1.91 -0.47 C2.32 -0.58, 3.01 0.13, 3.33 0.41 C3.64 0.69, 3.66 0.83, 3.79 1.21 C3.93 1.58, 4.32 2.22, 4.13 2.66 C3.94 3.1, 3.02 3.62, 2.63 3.84 C2.25 4.06, 2.17 4.01, 1.81 3.97 C1.45 3.93, 0.74 3.9, 0.49 3.6 C0.23 3.3, 0.25 2.63, 0.27 2.16 C0.28 1.7, 0.4 1.24, 0.58 0.81 C0.75 0.38, 1.08 -0.26, 1.31 -0.41 C1.54 -0.55, 1.86 -0.12, 1.94 -0.06" stroke="#0a11d3" stroke-width="1" fill="none"></path></g><g stroke-linecap="round" transform="translate(408.6511287621682 277.3704296438766) rotate(0 1.906250207741948 2.068865021381992)"><path d="M1.6 0.27 C1.93 0.27, 2.65 0.47, 3.01 0.7 C3.37 0.94, 3.65 1.26, 3.76 1.69 C3.87 2.11, 3.91 2.83, 3.66 3.25 C3.4 3.66, 2.69 3.99, 2.25 4.15 C1.82 4.32, 1.36 4.45, 1.04 4.23 C0.72 4.02, 0.54 3.29, 0.36 2.86 C0.19 2.44, -0.07 2.05, 0 1.67 C0.07 1.3, 0.43 0.95, 0.78 0.63 C1.12 0.31, 1.91 -0.15, 2.08 -0.25 C2.25 -0.34, 1.86 0, 1.8 0.05 M2.18 -0.38 C2.71 -0.37, 3.52 0.57, 3.74 0.97 C3.95 1.38, 3.58 1.67, 3.46 2.07 C3.34 2.47, 3.18 2.95, 3.04 3.37 C2.9 3.79, 2.93 4.44, 2.63 4.59 C2.33 4.74, 1.61 4.59, 1.26 4.28 C0.91 3.97, 0.77 3.24, 0.55 2.72 C0.33 2.2, -0.05 1.55, -0.07 1.16 C-0.09 0.77, 0.06 0.64, 0.43 0.38 C0.8 0.12, 1.85 -0.41, 2.16 -0.41 C2.46 -0.41, 2.31 0.28, 2.27 0.39" stroke="none" stroke-width="0" fill="#fff"></path><path d="M1.42 -0.12 C1.8 -0.26, 2.6 -0.18, 3.03 0.07 C3.45 0.32, 3.87 0.9, 3.95 1.38 C4.03 1.87, 3.76 2.59, 3.51 2.97 C3.26 3.35, 2.84 3.45, 2.46 3.65 C2.07 3.86, 1.6 4.28, 1.21 4.22 C0.83 4.16, 0.32 3.66, 0.14 3.3 C-0.05 2.94, -0.01 2.56, 0.08 2.06 C0.18 1.57, 0.4 0.75, 0.7 0.36 C0.99 -0.03, 1.7 -0.18, 1.86 -0.27 C2.02 -0.36, 1.67 -0.19, 1.65 -0.16 M1.59 0.46 C1.96 0.43, 3.05 0.39, 3.39 0.7 C3.73 1.02, 3.64 1.95, 3.63 2.34 C3.62 2.73, 3.53 2.73, 3.32 3.06 C3.11 3.39, 2.75 4.17, 2.36 4.33 C1.97 4.48, 1.29 4.18, 0.96 3.99 C0.63 3.8, 0.52 3.59, 0.39 3.2 C0.26 2.81, 0.1 2.16, 0.19 1.64 C0.27 1.12, 0.67 0.3, 0.91 0.08 C1.16 -0.13, 1.48 0.32, 1.65 0.35 C1.82 0.38, 1.93 0.33, 1.95 0.25" stroke="#0a11d3" stroke-width="1" fill="none"></path></g><g stroke-linecap="round"><g transform="translate(29.481490879166557 253.5047573828575) rotate(0 13.076466075713313 14.201698079597538)" fill-rule="evenodd"><path d="M-1.76 -2.02 C-1.49 2.5, 0.06 20.88, 0.68 25.66 C1.29 30.44, 1.95 26.1, 1.92 26.67 C1.89 27.24, -0.03 28, 0.48 29.09 C0.98 30.18, 2.79 33.22, 4.92 33.2 C7.06 33.18, 10.74 29.47, 13.29 28.96 C15.85 28.45, 17.94 29.96, 20.25 30.14 C22.56 30.33, 26.49 30.26, 27.16 30.06 C27.83 29.86, 24.49 29.65, 24.26 28.94 C24.03 28.22, 25.79 29.85, 25.78 25.75 C25.77 21.65, 23.82 8.57, 24.2 4.33 C24.59 0.1, 27.89 1.61, 28.11 0.34 C28.34 -0.94, 26.53 -2.79, 25.56 -3.31 C24.59 -3.84, 24.44 -3.22, 22.29 -2.8 C20.14 -2.39, 15.26 -1.2, 12.66 -0.83 C10.06 -0.47, 8.95 -0.61, 6.71 -0.6 C4.47 -0.58, 0.39 -0.79, -0.77 -0.74 C-1.92 -0.68, -0.16 -0.38, -0.21 -0.28 C-0.27 -0.18, -1.28 0.04, -1.11 -0.12" stroke="none" stroke-width="0" fill="#228be6" fill-rule="evenodd"></path><path d="M0.19 0.41 C0 4.58, -0.48 21.24, -0.46 25.84 C-0.43 30.43, 0.21 27.35, 0.34 27.99 C0.47 28.64, -0.77 29.4, 0.34 29.7 C1.46 30.01, 4.91 29.52, 7.03 29.8 C9.16 30.09, 10.59 31.39, 13.09 31.43 C15.58 31.46, 20.02 30.46, 21.99 29.99 C23.96 29.52, 24.27 28.77, 24.91 28.59 C25.55 28.41, 25.62 29.22, 25.85 28.92 C26.07 28.62, 26.4 31.1, 26.26 26.8 C26.12 22.5, 25.22 7.67, 24.99 3.13 C24.76 -1.42, 24.89 0.21, 24.87 -0.48 C24.85 -1.17, 25.71 -0.86, 24.88 -1.01 C24.06 -1.16, 22.01 -1, 19.9 -1.38 C17.78 -1.77, 14.64 -3.12, 12.2 -3.31 C9.76 -3.49, 7.08 -2.96, 5.26 -2.5 C3.44 -2.04, 2.13 -1.15, 1.27 -0.55 C0.4 0.05, 0.47 1.05, 0.07 1.09 C-0.33 1.13, -1.3 0.03, -1.14 -0.31 M-1.16 -0.42 C-1.63 3.3, -1.84 18.95, -1.69 23.87 C-1.54 28.78, -0.54 27.92, -0.25 29.07 C0.04 30.23, -0.99 30.71, 0.06 30.81 C1.12 30.91, 3.76 29.73, 6.09 29.69 C8.42 29.65, 11.25 30.17, 14.05 30.56 C16.85 30.95, 20.69 32.45, 22.89 32 C25.08 31.56, 26.42 28.56, 27.22 27.88 C28.03 27.19, 27.74 28.06, 27.71 27.89 C27.69 27.71, 27.57 31.31, 27.08 26.82 C26.58 22.33, 24.82 5.62, 24.73 0.97 C24.64 -3.69, 26.43 -0.67, 26.54 -1.11 C26.66 -1.54, 26.12 -1.64, 25.43 -1.66 C24.74 -1.67, 24.6 -0.79, 22.41 -1.21 C20.22 -1.63, 15.04 -4.17, 12.27 -4.19 C9.5 -4.21, 7.83 -2.12, 5.8 -1.34 C3.77 -0.56, 1.25 0.54, 0.09 0.49 C-1.07 0.44, -1.24 -1.5, -1.17 -1.62 C-1.09 -1.74, 0.61 -0.56, 0.54 -0.22" stroke="#0a11d3" stroke-width="1" fill="none"></path></g></g><mask></mask><g stroke-linecap="round"><g transform="translate(29.685488598930874 272.88180353281973) rotate(0 13.104200549664853 1.3202874075016737)"><path d="M0.19 -0.25 C0.26 -0.04, 0.28 0.99, 0.83 1.31 C1.37 1.63, 2.33 1.36, 3.46 1.67 C4.59 1.98, 5.98 3.06, 7.63 3.18 C9.29 3.3, 11.13 2.48, 13.4 2.38 C15.66 2.29, 19.29 2.89, 21.23 2.62 C23.18 2.35, 24.27 1.23, 25.05 0.75 C25.82 0.28, 25.64 -0.1, 25.88 -0.24 M-0.38 0.81 C-0.4 0.84, -0.1 0.22, 0.46 0.43 C1.03 0.63, 1.79 1.73, 3.01 2.03 C4.22 2.34, 5.88 2.2, 7.74 2.25 C9.6 2.31, 12.07 2.36, 14.17 2.36 C16.26 2.36, 18.45 2.38, 20.29 2.26 C22.13 2.15, 24.1 2.12, 25.21 1.66 C26.31 1.21, 26.79 -0.06, 26.91 -0.45" stroke="#0a11d3" stroke-width="1" fill="none"></path></g></g><mask></mask><g stroke-linecap="round"><g transform="translate(29.36088393978011 263.06593337526635) rotate(0 13.104200549664853 1.3202874075016737)"><path d="M-0.25 0.14 C-0.12 0.26, 0.27 0.62, 0.84 0.95 C1.42 1.28, 2 1.91, 3.21 2.13 C4.42 2.35, 6.38 2.15, 8.09 2.28 C9.8 2.41, 11.24 2.95, 13.45 2.93 C15.65 2.9, 19.37 2.5, 21.3 2.14 C23.24 1.77, 24.23 1.04, 25.03 0.71 C25.83 0.38, 25.9 0.25, 26.1 0.18 M0.63 -0.27 C0.69 -0.08, -0.12 1.04, 0.49 1.54 C1.1 2.04, 2.96 2.56, 4.29 2.73 C5.61 2.9, 6.78 2.48, 8.44 2.55 C10.1 2.63, 12.25 3.07, 14.24 3.18 C16.23 3.29, 18.57 3.46, 20.4 3.19 C22.22 2.93, 24.32 2.1, 25.18 1.59 C26.04 1.09, 25.52 0.47, 25.58 0.18" stroke="#0a11d3" stroke-width="1" fill="none"></path></g></g><mask></mask><g stroke-linecap="round" transform="translate(29.028242029422103 251.12315829855862) rotate(0 13.00665662367021 2.630498449041668)"><path d="M13.25 0.09 C16 -0.09, 19.33 -0.13, 21.48 0.19 C23.62 0.51, 25.61 1.3, 26.1 1.99 C26.58 2.67, 25.76 3.71, 24.36 4.29 C22.97 4.87, 20.41 5.29, 17.74 5.44 C15.07 5.59, 11.02 5.44, 8.36 5.19 C5.7 4.94, 3.21 4.43, 1.8 3.93 C0.4 3.43, -0.54 2.78, -0.06 2.19 C0.42 1.6, 2.52 0.77, 4.67 0.38 C6.81 0, 11.36 -0.08, 12.82 -0.11 C14.28 -0.15, 13.41 0.17, 13.44 0.17 M16.1 0.03 C18.77 0.29, 21.9 1.03, 23.51 1.53 C25.12 2.04, 25.94 2.72, 25.77 3.06 C25.59 3.4, 24.1 3.35, 22.45 3.6 C20.81 3.85, 18.64 4.28, 15.89 4.58 C13.15 4.89, 8.43 5.51, 5.97 5.42 C3.51 5.34, 1.88 4.79, 1.14 4.08 C0.4 3.37, 0.74 1.84, 1.53 1.16 C2.32 0.48, 3.46 0.21, 5.88 0.01 C8.3 -0.18, 14.56 -0.04, 16.04 -0.02 C17.53 -0.01, 14.98 -0.02, 14.78 0.11" stroke="none" stroke-width="0" fill="#fff"></path><path d="M12.2 -0.39 C14.83 -0.45, 17.78 0.26, 20.04 0.6 C22.29 0.95, 24.99 1.22, 25.75 1.69 C26.51 2.16, 25.79 2.83, 24.58 3.43 C23.37 4.03, 20.96 4.94, 18.49 5.29 C16.02 5.64, 12.52 5.67, 9.77 5.55 C7.01 5.43, 3.64 5.11, 1.94 4.56 C0.24 4.02, -0.76 2.87, -0.41 2.26 C-0.07 1.65, 1.91 1.25, 4 0.93 C6.08 0.6, 10.59 0.48, 12.07 0.29 C13.55 0.11, 12.87 -0.19, 12.87 -0.2 M14.1 -0.71 C16.66 -0.63, 19.61 0.87, 21.48 1.31 C23.34 1.76, 24.93 1.6, 25.29 1.96 C25.65 2.32, 25.1 2.92, 23.62 3.47 C22.15 4.03, 19.03 4.95, 16.46 5.31 C13.89 5.67, 10.8 5.94, 8.22 5.66 C5.65 5.38, 2.36 4.26, 1 3.61 C-0.35 2.96, -0.7 2.3, 0.09 1.75 C0.87 1.21, 3.59 0.72, 5.7 0.36 C7.81 0.01, 11.49 -0.42, 12.75 -0.38 C14.01 -0.35, 13.13 0.54, 13.27 0.56" stroke="#0a11d3" stroke-width="1" fill="none"></path></g><g stroke-linecap="round" transform="translate(50.251165383261934 258.41685614975654) rotate(0 1.906250207741948 2.06886502138199)"><path d="M1.72 0.19 C2.01 0.1, 2.35 0.33, 2.67 0.54 C2.98 0.75, 3.42 1.05, 3.63 1.45 C3.84 1.85, 4.02 2.56, 3.92 2.93 C3.82 3.3, 3.42 3.46, 3.02 3.65 C2.62 3.84, 1.98 4.14, 1.54 4.06 C1.1 3.98, 0.62 3.5, 0.36 3.18 C0.1 2.85, -0.01 2.56, -0.01 2.09 C-0.02 1.62, 0.06 0.72, 0.33 0.34 C0.6 -0.05, 1.37 -0.15, 1.62 -0.23 C1.87 -0.31, 1.83 -0.27, 1.8 -0.15 M2.01 0.32 C2.53 0.21, 3.26 0.2, 3.6 0.4 C3.94 0.6, 4.17 0.97, 4.07 1.52 C3.98 2.07, 3.35 3.31, 3.01 3.68 C2.67 4.05, 2.28 3.65, 2.03 3.74 C1.78 3.84, 1.74 4.27, 1.5 4.23 C1.26 4.18, 0.88 3.99, 0.58 3.48 C0.28 2.96, -0.31 1.56, -0.32 1.12 C-0.32 0.69, 0.17 1.12, 0.55 0.87 C0.93 0.63, 1.73 -0.18, 1.97 -0.34 C2.22 -0.51, 1.97 -0.31, 2.02 -0.14" stroke="none" stroke-width="0" fill="#fff"></path><path d="M1.37 -0.22 C1.77 -0.33, 2.64 0.2, 3.01 0.45 C3.37 0.7, 3.48 0.87, 3.56 1.26 C3.64 1.65, 3.57 2.33, 3.48 2.78 C3.38 3.22, 3.27 3.75, 2.99 3.92 C2.7 4.09, 2.15 3.93, 1.76 3.78 C1.37 3.64, 0.99 3.31, 0.68 3.04 C0.37 2.77, -0.09 2.59, -0.1 2.16 C-0.12 1.73, 0.26 0.83, 0.59 0.45 C0.91 0.07, 1.71 -0.01, 1.87 -0.12 C2.03 -0.23, 1.58 -0.27, 1.54 -0.21 M1.58 -0.12 C2.03 -0.26, 3.33 -0.09, 3.67 0.2 C4.01 0.48, 3.7 1.13, 3.61 1.57 C3.52 2.01, 3.3 2.4, 3.12 2.82 C2.94 3.24, 2.81 3.96, 2.54 4.09 C2.27 4.21, 1.93 3.8, 1.51 3.59 C1.09 3.38, 0.29 3.1, 0.01 2.84 C-0.27 2.58, -0.28 2.53, -0.17 2.05 C-0.06 1.57, 0.34 0.31, 0.66 -0.05 C0.99 -0.4, 1.51 -0.12, 1.79 -0.08 C2.08 -0.04, 2.41 0.13, 2.38 0.2" stroke="#0a11d3" stroke-width="1" fill="none"></path></g><g stroke-linecap="round" transform="translate(50.251165383261934 267.4991658130104) rotate(0 1.906250207741948 2.06886502138199)"><path d="M2.36 -0.24 C2.74 -0.23, 3.3 0.18, 3.55 0.6 C3.79 1.02, 3.82 1.77, 3.81 2.27 C3.8 2.77, 3.76 3.28, 3.47 3.59 C3.17 3.91, 2.44 4.1, 2.03 4.15 C1.61 4.19, 1.31 4.07, 0.97 3.85 C0.63 3.63, 0.11 3.24, -0.02 2.81 C-0.14 2.37, 0.11 1.67, 0.21 1.24 C0.31 0.81, 0.29 0.42, 0.58 0.23 C0.87 0.04, 1.73 0.17, 1.97 0.1 C2.21 0.03, 1.95 -0.22, 2.03 -0.18 M1.98 0.4 C2.25 0.37, 2.53 0.51, 2.77 0.6 C3.01 0.69, 3.19 0.65, 3.42 0.96 C3.65 1.27, 4.3 1.89, 4.14 2.44 C3.99 2.99, 2.88 3.92, 2.48 4.25 C2.08 4.59, 2.02 4.68, 1.75 4.46 C1.48 4.25, 1.24 3.41, 0.87 2.96 C0.5 2.5, -0.48 2.14, -0.47 1.76 C-0.45 1.37, 0.67 0.91, 0.96 0.62 C1.26 0.34, 1.23 0.07, 1.31 0.03 C1.4 -0.02, 1.34 0.33, 1.48 0.35" stroke="none" stroke-width="0" fill="#fff"></path><path d="M1.67 0.09 C2.03 0.08, 2.94 0.09, 3.27 0.32 C3.59 0.56, 3.58 1.02, 3.61 1.51 C3.65 2.01, 3.66 2.83, 3.49 3.29 C3.32 3.75, 3.01 4.1, 2.58 4.26 C2.16 4.43, 1.38 4.5, 0.94 4.29 C0.51 4.07, 0.08 3.41, -0.05 3 C-0.17 2.58, 0.11 2.19, 0.2 1.8 C0.28 1.42, 0.18 1.01, 0.45 0.68 C0.71 0.35, 1.59 -0.06, 1.8 -0.17 C2 -0.28, 1.66 -0.09, 1.69 -0.01 M1.8 0.43 C2.05 0.45, 2.47 0.15, 2.76 0.3 C3.04 0.46, 3.43 0.88, 3.49 1.37 C3.56 1.86, 3.29 2.74, 3.13 3.25 C2.98 3.75, 2.94 4.32, 2.56 4.41 C2.18 4.51, 1.28 4.09, 0.87 3.83 C0.46 3.57, 0.18 3.23, 0.12 2.86 C0.06 2.48, 0.51 1.99, 0.53 1.55 C0.55 1.11, 0.04 0.41, 0.26 0.21 C0.48 0.01, 1.54 0.43, 1.84 0.34 C2.15 0.24, 2.04 -0.3, 2.08 -0.33" stroke="#0a11d3" stroke-width="1" fill="none"></path></g><g stroke-linecap="round" transform="translate(50.251165383261934 277.3704296438766) rotate(0 1.906250207741948 2.068865021381992)"><path d="M1.92 0.23 C2.28 0.24, 2.88 0.38, 3.23 0.69 C3.59 1, 4 1.68, 4.06 2.08 C4.13 2.48, 3.92 2.76, 3.64 3.1 C3.35 3.43, 2.78 3.96, 2.34 4.07 C1.89 4.18, 1.33 3.93, 0.96 3.74 C0.59 3.55, 0.29 3.39, 0.12 2.94 C-0.06 2.5, -0.19 1.57, -0.08 1.09 C0.04 0.6, 0.44 0.27, 0.83 0.06 C1.23 -0.15, 2.1 -0.22, 2.29 -0.18 C2.48 -0.13, 1.99 0.29, 1.99 0.32 M2.61 -0.13 C3.04 -0.2, 3.51 -0.02, 3.63 0.42 C3.75 0.86, 3.44 2.08, 3.32 2.53 C3.21 2.97, 3.07 2.77, 2.95 3.08 C2.83 3.38, 2.87 4.15, 2.6 4.36 C2.33 4.57, 1.82 4.69, 1.34 4.35 C0.87 4.01, -0.01 2.74, -0.25 2.32 C-0.49 1.91, -0.3 2.24, -0.11 1.84 C0.08 1.44, 0.5 0.27, 0.89 -0.06 C1.28 -0.39, 1.96 -0.26, 2.23 -0.15 C2.5 -0.05, 2.53 0.49, 2.5 0.55" stroke="none" stroke-width="0" fill="#fff"></path><path d="M2.26 0.15 C2.67 0.2, 2.94 0.22, 3.16 0.51 C3.39 0.81, 3.54 1.45, 3.61 1.93 C3.69 2.4, 3.77 3.06, 3.6 3.37 C3.42 3.68, 2.94 3.75, 2.55 3.78 C2.17 3.82, 1.71 3.72, 1.29 3.59 C0.87 3.46, 0.22 3.41, 0.03 3.01 C-0.15 2.61, 0.01 1.67, 0.19 1.2 C0.36 0.72, 0.78 0.42, 1.09 0.18 C1.4 -0.06, 1.85 -0.23, 2.03 -0.24 C2.21 -0.25, 2.12 0.03, 2.17 0.11 M2.63 -0.37 C3.06 -0.36, 3.01 0.08, 3.14 0.41 C3.28 0.74, 3.39 1.12, 3.45 1.61 C3.51 2.11, 3.64 3.04, 3.51 3.39 C3.38 3.74, 3.12 3.68, 2.67 3.74 C2.22 3.8, 1.27 3.83, 0.81 3.76 C0.35 3.69, 0.04 3.78, -0.1 3.31 C-0.24 2.85, -0.16 1.48, -0.03 0.96 C0.1 0.45, 0.24 0.34, 0.66 0.21 C1.09 0.08, 2.34 0.18, 2.53 0.18 C2.73 0.18, 1.89 0.2, 1.82 0.21" stroke="#0a11d3" stroke-width="1" fill="none"></path></g><g stroke-linecap="round"><g transform="translate(208.6815030861978 334.30474517582627) rotate(0 13.076466075713316 14.201698079597541)" fill-rule="evenodd"><path d="M0.46 -1.58 C0.97 2.89, 1.58 20.1, 1.3 24.79 C1.02 29.49, -1.36 26.05, -1.21 26.58 C-1.06 27.12, 1.18 27.11, 2.19 28 C3.2 28.88, 3.13 31.16, 4.84 31.87 C6.55 32.58, 9.77 32.74, 12.46 32.25 C15.16 31.77, 18.63 29.77, 21 28.95 C23.36 28.12, 25.54 27.71, 26.65 27.29 C27.76 26.86, 27.91 26.67, 27.66 26.4 C27.41 26.13, 25.38 29.88, 25.16 25.66 C24.95 21.44, 26.61 5.08, 26.36 1.06 C26.11 -2.97, 23.62 1.64, 23.67 1.5 C23.71 1.36, 26.93 0.85, 26.61 0.23 C26.28 -0.39, 24.15 -2.09, 21.7 -2.2 C19.26 -2.31, 14.77 -0.34, 11.91 -0.43 C9.06 -0.52, 6.55 -2.56, 4.58 -2.75 C2.6 -2.94, 0.46 -2.37, 0.05 -1.57 C-0.36 -0.77, 2.31 1.48, 2.12 2.04 C1.92 2.59, -0.84 2.5, -1.1 1.77" stroke="none" stroke-width="0" fill="#228be6" fill-rule="evenodd"></path><path d="M-0.38 0.14 C-0.31 4.43, 1.11 19.84, 1.16 24.61 C1.21 29.37, 0.05 27.89, -0.1 28.75 C-0.26 29.61, -0.77 29.35, 0.22 29.74 C1.22 30.13, 3.47 30.76, 5.88 31.11 C8.29 31.47, 11.92 31.84, 14.68 31.86 C17.45 31.87, 20.51 31.58, 22.47 31.19 C24.43 30.81, 25.81 29.9, 26.45 29.56 C27.09 29.22, 26.44 29.57, 26.29 29.16 C26.14 28.74, 25.47 31.7, 25.57 27.07 C25.67 22.44, 26.74 6.07, 26.91 1.37 C27.07 -3.33, 27.15 -0.73, 26.56 -1.15 C25.97 -1.58, 24.31 -1.01, 23.38 -1.19 C22.45 -1.36, 22.73 -1.85, 20.96 -2.21 C19.19 -2.56, 15.08 -3.41, 12.76 -3.32 C10.45 -3.23, 9.12 -1.91, 7.09 -1.69 C5.06 -1.46, 1.96 -2.13, 0.58 -1.99 C-0.79 -1.85, -0.94 -1.15, -1.17 -0.85 C-1.4 -0.55, -0.95 -0.41, -0.81 -0.18 M1.61 -0.84 C1.56 3.68, 1.2 20.48, 0.77 25.65 C0.35 30.83, -0.77 29.36, -0.92 30.23 C-1.07 31.1, -0.99 30.62, -0.12 30.86 C0.76 31.11, 2.18 31.63, 4.33 31.68 C6.49 31.74, 10.21 31.47, 12.82 31.22 C15.42 30.97, 17.78 30.49, 19.96 30.18 C22.14 29.87, 25.12 29.68, 25.91 29.36 C26.7 29.04, 24.71 28.61, 24.73 28.26 C24.74 27.9, 25.54 31.61, 26.02 27.23 C26.51 22.84, 27.75 6.23, 27.65 1.95 C27.56 -2.33, 26.21 2.18, 25.46 1.53 C24.71 0.89, 23.98 -1.26, 23.14 -1.92 C22.29 -2.59, 22.04 -2.08, 20.37 -2.46 C18.71 -2.84, 15.71 -3.99, 13.14 -4.2 C10.56 -4.42, 6.66 -4.17, 4.92 -3.76 C3.18 -3.34, 3.43 -2.19, 2.71 -1.71 C1.99 -1.24, 0.88 -1.2, 0.6 -0.92 C0.32 -0.63, 1.14 -0.02, 1.04 -0.01" stroke="#0a11d3" stroke-width="1" fill="none"></path></g></g><mask></mask><g stroke-linecap="round"><g transform="translate(208.88550080596212 353.6817913257885) rotate(0 13.104200549664856 1.3202874075016666)"><path d="M0.06 0.49 C0.19 0.71, -0.36 0.92, 0.26 1.11 C0.89 1.3, 2.58 1.36, 3.81 1.62 C5.04 1.87, 5.95 2.4, 7.65 2.65 C9.35 2.9, 11.7 3.08, 14 3.11 C16.29 3.14, 19.5 3.12, 21.43 2.84 C23.36 2.57, 24.78 1.94, 25.6 1.46 C26.42 0.98, 26.16 0.27, 26.33 -0.04 M-0.57 0.27 C-0.22 0.59, 0.59 1.51, 1.28 1.79 C1.96 2.07, 2.45 1.73, 3.53 1.95 C4.61 2.17, 6.12 2.87, 7.77 3.12 C9.42 3.37, 11.27 3.55, 13.41 3.46 C15.55 3.38, 18.48 3, 20.59 2.6 C22.69 2.2, 25.15 1.52, 26.04 1.07 C26.93 0.61, 25.91 -0.05, 25.92 -0.15" stroke="#0a11d3" stroke-width="1" fill="none"></path></g></g><mask></mask><g stroke-linecap="round"><g transform="translate(208.56089614681136 343.8659211682351) rotate(0 13.104200549664856 1.3202874075016666)"><path d="M0.49 -0.43 C0.63 -0.22, 0.2 0.87, 0.64 1.3 C1.09 1.73, 2 1.89, 3.15 2.15 C4.31 2.41, 5.73 2.72, 7.56 2.88 C9.4 3.04, 11.85 3.16, 14.18 3.12 C16.5 3.09, 19.6 3.01, 21.53 2.69 C23.45 2.36, 24.94 1.55, 25.74 1.15 C26.53 0.75, 26.27 0.41, 26.3 0.29 M0.08 0.54 C0.16 0.57, -0.5 0.04, 0.19 0.4 C0.87 0.77, 2.96 2.25, 4.21 2.76 C5.45 3.27, 6.06 3.34, 7.64 3.46 C9.22 3.58, 11.5 3.66, 13.68 3.48 C15.86 3.3, 18.91 2.84, 20.73 2.36 C22.55 1.88, 23.73 0.94, 24.58 0.6 C25.44 0.27, 25.53 0.44, 25.88 0.35" stroke="#0a11d3" stroke-width="1" fill="none"></path></g></g><mask></mask><g stroke-linecap="round" transform="translate(208.22825423645335 331.92314609152737) rotate(0 13.00665662367021 2.630498449041667)"><path d="M12.22 0.33 C14.93 0.37, 19.31 0.61, 21.6 0.9 C23.89 1.19, 25.51 1.51, 25.95 2.09 C26.4 2.66, 25.69 3.87, 24.27 4.35 C22.85 4.84, 20.02 4.88, 17.42 4.99 C14.81 5.11, 11.15 5.12, 8.64 5.03 C6.12 4.93, 3.79 4.82, 2.34 4.42 C0.89 4.01, -0.44 3.31, -0.08 2.6 C0.28 1.89, 2.39 0.6, 4.52 0.18 C6.64 -0.24, 11.24 0.17, 12.69 0.06 C14.14 -0.04, 13.15 -0.51, 13.24 -0.43 M13.77 -0.1 C16.21 -0.09, 19.72 0.97, 21.76 1.44 C23.79 1.9, 25.63 2.14, 25.96 2.69 C26.28 3.24, 25.44 4.42, 23.71 4.74 C21.97 5.06, 18.21 4.68, 15.54 4.61 C12.87 4.53, 10.16 4.41, 7.67 4.29 C5.17 4.16, 1.76 4.14, 0.57 3.85 C-0.62 3.56, -0.29 3.12, 0.55 2.56 C1.39 2, 3.32 1.04, 5.59 0.49 C7.86 -0.05, 12.67 -0.63, 14.19 -0.71 C15.71 -0.79, 14.72 -0.06, 14.7 0" stroke="none" stroke-width="0" fill="#fff"></path><path d="M13.77 0.15 C16.55 0.2, 20.19 0.64, 22.29 1.04 C24.38 1.45, 26.01 2.07, 26.34 2.6 C26.66 3.12, 25.82 3.71, 24.22 4.19 C22.63 4.68, 19.54 5.32, 16.76 5.54 C13.98 5.76, 10.06 5.87, 7.55 5.53 C5.03 5.18, 2.84 4.14, 1.69 3.48 C0.53 2.82, 0.08 2.06, 0.61 1.57 C1.15 1.09, 2.64 0.85, 4.92 0.58 C7.2 0.31, 12.68 0.09, 14.28 -0.04 C15.89 -0.17, 14.54 -0.29, 14.56 -0.19 M11.03 -0.49 C13.72 -0.49, 17.62 -0.07, 20.09 0.24 C22.56 0.54, 25.14 0.74, 25.84 1.34 C26.55 1.94, 25.58 3.15, 24.32 3.82 C23.06 4.49, 20.74 5.19, 18.31 5.36 C15.88 5.52, 12.45 4.97, 9.72 4.81 C7 4.66, 3.67 4.9, 1.97 4.45 C0.27 4, -0.82 2.78, -0.5 2.1 C-0.17 1.42, 1.86 0.74, 3.92 0.36 C5.99 -0.01, 10.71 -0.15, 11.91 -0.14 C13.1 -0.13, 11.22 0.26, 11.09 0.41" stroke="#0a11d3" stroke-width="1" fill="none"></path></g><g stroke-linecap="round" transform="translate(229.45117759029318 339.2168439427253) rotate(0 1.9062502077419552 2.0688650213819884)"><path d="M2.16 0.32 C2.61 0.37, 3.1 0.42, 3.37 0.64 C3.64 0.86, 3.69 1.26, 3.77 1.64 C3.85 2.02, 4.07 2.54, 3.85 2.91 C3.63 3.29, 2.92 3.65, 2.47 3.88 C2.02 4.11, 1.48 4.45, 1.16 4.29 C0.83 4.13, 0.67 3.35, 0.52 2.92 C0.37 2.5, 0.3 2.19, 0.28 1.75 C0.25 1.3, 0.1 0.55, 0.39 0.25 C0.68 -0.05, 1.8 -0.04, 2.01 -0.05 C2.23 -0.06, 1.66 0.12, 1.68 0.19 M2.11 -0.36 C2.49 -0.27, 3.45 0.27, 3.76 0.68 C4.07 1.1, 3.98 1.74, 3.98 2.11 C3.98 2.48, 4.12 2.55, 3.78 2.92 C3.43 3.28, 2.45 4.21, 1.91 4.31 C1.36 4.41, 0.8 3.75, 0.52 3.51 C0.25 3.27, 0.23 3.23, 0.23 2.87 C0.23 2.51, 0.41 1.78, 0.53 1.34 C0.65 0.9, 0.74 0.39, 0.93 0.22 C1.13 0.04, 1.5 0.33, 1.7 0.29 C1.9 0.26, 2.13 0.02, 2.14 -0.01" stroke="none" stroke-width="0" fill="#fff"></path><path d="M1.71 0.23 C2.12 0.19, 2.74 0.33, 3.1 0.56 C3.46 0.8, 3.77 1.27, 3.88 1.65 C3.99 2.04, 3.89 2.53, 3.76 2.87 C3.62 3.21, 3.4 3.47, 3.08 3.71 C2.77 3.96, 2.34 4.35, 1.87 4.32 C1.39 4.29, 0.57 3.96, 0.21 3.53 C-0.15 3.11, -0.34 2.24, -0.29 1.78 C-0.24 1.32, 0.2 1.06, 0.52 0.77 C0.83 0.48, 1.45 0.12, 1.61 0.04 C1.78 -0.04, 1.48 0.29, 1.52 0.3 M1.33 -0.06 C1.77 -0.04, 2.47 0.39, 2.81 0.57 C3.15 0.76, 3.21 0.72, 3.36 1.05 C3.52 1.38, 3.81 2.1, 3.76 2.55 C3.7 3, 3.44 3.56, 3.02 3.76 C2.6 3.95, 1.64 3.84, 1.23 3.71 C0.82 3.57, 0.8 3.22, 0.56 2.97 C0.31 2.72, -0.18 2.54, -0.24 2.19 C-0.3 1.85, -0.09 1.32, 0.21 0.9 C0.51 0.48, 1.28 -0.11, 1.57 -0.32 C1.85 -0.52, 1.83 -0.38, 1.9 -0.35" stroke="#0a11d3" stroke-width="1" fill="none"></path></g><g stroke-linecap="round" transform="translate(229.45117759029318 348.29915360597914) rotate(0 1.9062502077419552 2.0688650213819884)"><path d="M2.08 0.22 C2.54 0.13, 2.89 0.1, 3.15 0.37 C3.41 0.65, 3.61 1.45, 3.65 1.87 C3.69 2.29, 3.59 2.57, 3.4 2.91 C3.22 3.25, 2.83 3.65, 2.54 3.89 C2.26 4.13, 2.07 4.41, 1.68 4.34 C1.28 4.27, 0.45 3.94, 0.18 3.47 C-0.09 3.01, 0.05 2.02, 0.08 1.54 C0.11 1.07, 0.08 0.94, 0.36 0.63 C0.64 0.32, 1.48 -0.25, 1.75 -0.32 C2.02 -0.39, 1.95 0.06, 1.99 0.2 M1.83 0.45 C2.27 0.54, 2.99 0.56, 3.34 0.88 C3.68 1.21, 3.98 2.07, 3.91 2.42 C3.85 2.77, 3.18 2.79, 2.94 2.99 C2.71 3.2, 2.87 3.47, 2.48 3.63 C2.09 3.79, 0.98 4.04, 0.59 3.97 C0.21 3.9, 0.26 3.66, 0.16 3.23 C0.07 2.81, -0.08 1.99, 0.03 1.41 C0.15 0.84, 0.43 0.05, 0.84 -0.19 C1.25 -0.43, 2.27 0.01, 2.48 -0.01 C2.7 -0.04, 2.2 -0.4, 2.14 -0.35" stroke="none" stroke-width="0" fill="#fff"></path><path d="M2.12 0.21 C2.56 0.2, 3.09 0.4, 3.41 0.66 C3.73 0.93, 4.01 1.34, 4.04 1.79 C4.08 2.24, 3.89 2.94, 3.61 3.37 C3.33 3.79, 2.74 4.27, 2.38 4.34 C2.03 4.41, 1.8 4.05, 1.47 3.8 C1.14 3.54, 0.7 3.14, 0.42 2.8 C0.13 2.46, -0.28 2.14, -0.22 1.75 C-0.16 1.35, 0.39 0.76, 0.75 0.44 C1.11 0.12, 1.72 -0.14, 1.96 -0.17 C2.21 -0.21, 2.23 0.2, 2.21 0.22 M1.53 -0.11 C2 -0.2, 2.83 -0.34, 3.12 -0.07 C3.42 0.19, 3.26 0.96, 3.3 1.48 C3.34 2, 3.47 2.69, 3.37 3.05 C3.26 3.41, 3.05 3.42, 2.68 3.63 C2.32 3.83, 1.6 4.36, 1.17 4.27 C0.73 4.19, 0.24 3.56, 0.08 3.13 C-0.08 2.71, 0.12 2.16, 0.23 1.74 C0.33 1.32, 0.53 0.86, 0.7 0.61 C0.87 0.37, 1.19 0.29, 1.27 0.26 C1.35 0.22, 1.2 0.43, 1.2 0.39" stroke="#0a11d3" stroke-width="1" fill="none"></path></g><g stroke-linecap="round" transform="translate(229.45117759029318 358.17041743684536) rotate(0 1.9062502077419552 2.0688650213819884)"><path d="M1.83 0.16 C2.17 -0.01, 2.51 0.02, 2.87 0.19 C3.24 0.36, 3.89 0.76, 4.02 1.17 C4.14 1.59, 3.84 2.17, 3.63 2.67 C3.42 3.16, 3.07 3.96, 2.76 4.17 C2.46 4.38, 2.17 4.07, 1.82 3.95 C1.47 3.83, 1.02 3.8, 0.67 3.44 C0.31 3.09, -0.29 2.28, -0.32 1.82 C-0.34 1.35, 0.24 0.93, 0.51 0.66 C0.78 0.38, 1.09 0.24, 1.32 0.17 C1.54 0.09, 1.73 0.13, 1.84 0.19 M2.1 0 C2.52 0.01, 2.78 0.26, 3.11 0.43 C3.44 0.6, 4.08 0.58, 4.11 1.02 C4.14 1.47, 3.58 2.67, 3.28 3.09 C2.98 3.51, 2.58 3.36, 2.3 3.53 C2.01 3.7, 1.82 4.17, 1.57 4.12 C1.33 4.08, 1.07 3.62, 0.82 3.24 C0.56 2.87, 0.16 2.26, 0.03 1.87 C-0.1 1.49, -0.24 1.25, 0.03 0.93 C0.3 0.61, 1.43 0.1, 1.63 -0.05 C1.84 -0.21, 1.24 -0.13, 1.26 -0.01" stroke="none" stroke-width="0" fill="#fff"></path><path d="M2.08 0.27 C2.48 0.24, 2.98 0.47, 3.27 0.71 C3.57 0.96, 3.76 1.36, 3.85 1.72 C3.94 2.09, 3.99 2.48, 3.83 2.9 C3.68 3.32, 3.38 4.01, 2.92 4.22 C2.46 4.44, 1.57 4.41, 1.08 4.19 C0.59 3.97, 0.15 3.29, -0.02 2.89 C-0.18 2.49, -0.04 2.21, 0.07 1.81 C0.17 1.42, 0.34 0.8, 0.62 0.54 C0.89 0.27, 1.47 0.35, 1.72 0.24 C1.97 0.14, 2.11 -0.05, 2.1 -0.11 M1.55 0.25 C1.93 0.12, 2.21 -0.21, 2.59 -0.06 C2.97 0.09, 3.61 0.69, 3.83 1.16 C4.05 1.62, 4.12 2.34, 3.9 2.74 C3.68 3.13, 2.89 3.37, 2.51 3.54 C2.13 3.7, 2.03 3.73, 1.64 3.73 C1.24 3.73, 0.46 3.79, 0.13 3.53 C-0.19 3.27, -0.35 2.72, -0.3 2.18 C-0.25 1.65, 0.05 0.75, 0.42 0.32 C0.79 -0.11, 1.65 -0.29, 1.92 -0.4 C2.18 -0.5, 2.08 -0.42, 2.01 -0.32" stroke="#0a11d3" stroke-width="1" fill="none"></path></g><g stroke-linecap="round"><g transform="translate(208.6815030861978 28.70470855473249) rotate(0 13.076466075713316 14.201698079597548)" fill-rule="evenodd"><path d="M0.52 -1.09 C0.86 3.56, 1.69 21.5, 1.32 26.39 C0.94 31.29, -1.58 27.41, -1.72 28.28 C-1.85 29.15, -0.76 31.12, 0.52 31.6 C1.8 32.08, 3.77 31.36, 5.96 31.17 C8.15 30.99, 11.35 30.56, 13.66 30.5 C15.96 30.43, 17.68 30.92, 19.81 30.77 C21.94 30.61, 25.22 30.09, 26.43 29.57 C27.64 29.04, 27.16 28.47, 27.06 27.61 C26.95 26.75, 26.23 28.46, 25.81 24.39 C25.38 20.33, 24.65 6.96, 24.5 3.23 C24.35 -0.49, 24.82 2.93, 24.9 2.06 C24.97 1.18, 25.53 -1.59, 24.95 -2.03 C24.36 -2.47, 23.29 -0.6, 21.37 -0.57 C19.45 -0.54, 16.3 -1.71, 13.44 -1.86 C10.59 -2.01, 6.05 -1.31, 4.25 -1.47 C2.46 -1.63, 3.69 -3.28, 2.65 -2.81 C1.6 -2.33, -1.31 0.59, -2.01 1.4 C-2.71 2.2, -1.68 2.47, -1.54 2.04" stroke="none" stroke-width="0" fill="#228be6" fill-rule="evenodd"></path><path d="M1.02 -0.61 C0.83 3.37, -0.01 19.42, -0.28 24.46 C-0.54 29.5, -0.77 28.56, -0.59 29.62 C-0.42 30.68, -0.33 30.54, 0.77 30.82 C1.87 31.11, 4 31.42, 6 31.31 C8.01 31.2, 10.06 30.16, 12.8 30.17 C15.54 30.18, 20.31 31.42, 22.47 31.37 C24.63 31.32, 25.35 30.37, 25.76 29.86 C26.17 29.36, 24.68 29.14, 24.93 28.36 C25.18 27.57, 27.23 29.52, 27.27 25.14 C27.31 20.76, 25.38 6.31, 25.19 2.08 C25 -2.15, 26.19 0.51, 26.14 -0.23 C26.08 -0.97, 25.61 -2.08, 24.88 -2.35 C24.15 -2.61, 23.91 -1.65, 21.75 -1.82 C19.6 -1.98, 14.34 -3.23, 11.95 -3.36 C9.56 -3.49, 9.39 -3.01, 7.4 -2.6 C5.41 -2.18, 1.11 -1.34, 0 -0.87 C-1.12 -0.4, 0.68 0.2, 0.7 0.25 C0.73 0.3, 0.13 -0.6, 0.15 -0.55 M0.09 1.69 C-0.36 5.73, -1.12 21.07, -1.41 25.43 C-1.71 29.8, -2.03 27.32, -1.67 27.89 C-1.32 28.46, -0.32 28.17, 0.71 28.86 C1.74 29.54, 2.37 31.42, 4.52 31.99 C6.67 32.57, 11.04 32.56, 13.61 32.3 C16.19 32.05, 18.08 30.86, 19.96 30.45 C21.84 30.03, 23.81 30.39, 24.87 29.82 C25.92 29.25, 26.3 27.96, 26.31 27.03 C26.33 26.11, 25.17 28.29, 24.96 24.29 C24.74 20.29, 25.06 7.21, 25.03 3.04 C25.01 -1.13, 24.75 -0.21, 24.81 -0.72 C24.88 -1.23, 25.96 0.16, 25.42 -0.03 C24.88 -0.22, 23.83 -1.16, 21.58 -1.87 C19.33 -2.57, 14.6 -4.33, 11.9 -4.26 C9.21 -4.2, 7.08 -2.19, 5.4 -1.48 C3.72 -0.77, 2.75 -0.38, 1.81 0 C0.88 0.37, 0.29 0.85, -0.21 0.75 C-0.7 0.66, -1.48 -0.3, -1.16 -0.59" stroke="#0a11d3" stroke-width="1" fill="none"></path></g></g><mask></mask><g stroke-linecap="round"><g transform="translate(208.88550080596212 48.08175470469473) rotate(0 13.104200549664856 1.3202874075016666)"><path d="M-0.28 -0.17 C-0.29 -0.1, -0.55 0.55, 0.2 0.89 C0.94 1.22, 2.88 1.56, 4.21 1.87 C5.53 2.17, 6.5 2.64, 8.14 2.71 C9.79 2.77, 12 2.23, 14.09 2.25 C16.17 2.27, 18.73 3.03, 20.66 2.84 C22.59 2.66, 24.71 1.73, 25.68 1.15 C26.65 0.56, 26.37 -0.53, 26.47 -0.66 M0.58 -0.73 C0.71 -0.35, 0.59 0.93, 1.18 1.44 C1.77 1.95, 3.19 2.04, 4.13 2.33 C5.08 2.62, 5.29 3.23, 6.86 3.2 C8.42 3.17, 11.18 2.26, 13.55 2.16 C15.92 2.06, 19.26 2.86, 21.08 2.6 C22.91 2.34, 23.66 0.93, 24.5 0.59 C25.34 0.25, 25.96 0.67, 26.13 0.57" stroke="#0a11d3" stroke-width="1" fill="none"></path></g></g><mask></mask><g stroke-linecap="round"><g transform="translate(208.56089614681136 38.265884547141326) rotate(0 13.104200549664856 1.3202874075016666)"><path d="M-0.17 -0.49 C-0.17 -0.16, -0.18 1.17, 0.42 1.7 C1.01 2.22, 2.2 2.43, 3.4 2.65 C4.6 2.86, 5.97 3.02, 7.62 2.97 C9.27 2.92, 11 2.38, 13.31 2.35 C15.63 2.32, 19.51 2.94, 21.52 2.77 C23.54 2.59, 24.73 1.77, 25.42 1.29 C26.12 0.82, 25.46 0.22, 25.68 -0.08 M0.75 0.44 C0.88 0.66, 1.15 0.77, 1.51 1.01 C1.87 1.24, 1.88 1.69, 2.92 1.84 C3.95 2, 5.87 1.86, 7.72 1.94 C9.58 2.01, 11.87 2.22, 14.04 2.31 C16.21 2.4, 18.77 2.73, 20.73 2.48 C22.69 2.23, 24.79 1.26, 25.77 0.81 C26.75 0.36, 26.53 -0.13, 26.61 -0.21" stroke="#0a11d3" stroke-width="1" fill="none"></path></g></g><mask></mask><g stroke-linecap="round" transform="translate(208.22825423645335 26.32310947043362) rotate(0 13.00665662367021 2.630498449041667)"><path d="M10.8 0.47 C13.47 0.3, 17.44 -0.03, 19.88 0.24 C22.32 0.51, 24.55 1.51, 25.45 2.09 C26.35 2.68, 26.39 3.25, 25.29 3.75 C24.19 4.26, 21.29 4.93, 18.87 5.11 C16.46 5.3, 13.53 4.95, 10.79 4.86 C8.06 4.77, 4.31 4.88, 2.46 4.57 C0.61 4.26, -0.4 3.64, -0.31 2.99 C-0.23 2.34, 0.95 1.2, 2.97 0.66 C4.99 0.11, 10.24 -0.19, 11.81 -0.28 C13.38 -0.36, 12.43 -0.02, 12.39 0.13 M16.59 0.25 C19.3 0.27, 21.76 0.32, 23.41 0.77 C25.05 1.22, 26.64 2.27, 26.45 2.95 C26.25 3.64, 24.25 4.53, 22.23 4.88 C20.2 5.24, 16.99 5.05, 14.3 5.08 C11.61 5.11, 8.29 5.33, 6.09 5.09 C3.9 4.84, 2.02 4.18, 1.12 3.62 C0.22 3.05, -0.4 2.16, 0.68 1.7 C1.77 1.23, 5.14 1.06, 7.63 0.82 C10.13 0.59, 14.34 0.35, 15.64 0.29 C16.94 0.23, 15.37 0.56, 15.44 0.46" stroke="none" stroke-width="0" fill="#fff"></path><path d="M16.14 0.31 C18.71 0.26, 21.35 0.22, 23.05 0.7 C24.76 1.17, 26.48 2.48, 26.38 3.15 C26.29 3.82, 24.55 4.33, 22.46 4.69 C20.38 5.05, 16.59 5.33, 13.88 5.3 C11.17 5.26, 8.48 4.82, 6.19 4.5 C3.9 4.17, 0.96 3.83, 0.12 3.33 C-0.71 2.83, -0.04 2.09, 1.2 1.51 C2.44 0.93, 4.94 0.07, 7.55 -0.15 C10.16 -0.36, 15.4 0.2, 16.86 0.2 C18.33 0.21, 16.39 -0.12, 16.35 -0.12 M10.16 0.16 C12.61 0.01, 15.96 0.57, 18.48 0.77 C21 0.98, 24.18 0.91, 25.27 1.37 C26.36 1.83, 25.92 2.9, 25.01 3.54 C24.1 4.18, 22.04 5.01, 19.83 5.2 C17.63 5.4, 14.49 4.89, 11.77 4.72 C9.05 4.55, 5.37 4.51, 3.51 4.18 C1.65 3.86, 0.74 3.3, 0.6 2.76 C0.47 2.23, 1.15 1.51, 2.69 0.97 C4.22 0.44, 8.57 -0.35, 9.81 -0.45 C11.04 -0.54, 10.02 0.22, 10.11 0.4" stroke="#0a11d3" stroke-width="1" fill="none"></path></g><g stroke-linecap="round" transform="translate(229.45117759029318 33.61680732163151) rotate(0 1.9062502077419552 2.0688650213819955)"><path d="M1.99 0.1 C2.33 0.07, 2.55 0.19, 2.87 0.43 C3.2 0.68, 3.79 1.23, 3.94 1.59 C4.09 1.96, 3.94 2.21, 3.77 2.64 C3.59 3.06, 3.29 3.94, 2.87 4.13 C2.44 4.33, 1.6 3.98, 1.22 3.81 C0.84 3.63, 0.72 3.42, 0.56 3.08 C0.4 2.74, 0.31 2.14, 0.28 1.77 C0.25 1.4, 0.16 1.12, 0.37 0.88 C0.58 0.64, 1.29 0.48, 1.53 0.34 C1.77 0.19, 1.73 -0.01, 1.8 0.02 M1.75 -0.01 C2.09 -0.11, 2.37 0.4, 2.71 0.61 C3.06 0.83, 3.62 0.92, 3.83 1.27 C4.04 1.62, 4.16 2.24, 3.97 2.71 C3.79 3.17, 3.08 3.77, 2.7 4.06 C2.32 4.36, 2.05 4.64, 1.69 4.48 C1.34 4.32, 0.84 3.45, 0.57 3.09 C0.3 2.72, 0.03 2.74, 0.08 2.3 C0.12 1.86, 0.56 0.87, 0.85 0.43 C1.13 -0.01, 1.61 -0.31, 1.78 -0.33 C1.95 -0.36, 1.96 0.26, 1.86 0.29" stroke="none" stroke-width="0" fill="#fff"></path><path d="M1.91 -0.31 C2.2 -0.33, 2.41 0.33, 2.75 0.65 C3.1 0.97, 3.8 1.28, 3.97 1.61 C4.15 1.95, 3.99 2.2, 3.78 2.64 C3.58 3.08, 3.16 4.06, 2.73 4.26 C2.3 4.45, 1.59 3.97, 1.19 3.81 C0.79 3.65, 0.52 3.59, 0.32 3.29 C0.12 3, -0.02 2.44, -0.03 2.04 C-0.03 1.64, -0.02 1.25, 0.29 0.88 C0.61 0.5, 1.64 -0.11, 1.87 -0.2 C2.09 -0.28, 1.67 0.36, 1.65 0.37 M2.03 -0.23 C2.42 -0.23, 3.24 0.46, 3.51 0.74 C3.78 1.03, 3.63 1.1, 3.65 1.47 C3.67 1.83, 3.78 2.48, 3.63 2.94 C3.48 3.39, 3.22 4.04, 2.75 4.21 C2.29 4.38, 1.3 4.09, 0.85 3.96 C0.4 3.83, 0.19 3.81, 0.06 3.43 C-0.08 3.06, -0.08 2.25, 0.03 1.73 C0.13 1.21, 0.4 0.6, 0.67 0.32 C0.93 0.04, 1.37 0.08, 1.62 0.04 C1.87 0, 2.06 0.09, 2.15 0.1" stroke="#0a11d3" stroke-width="1" fill="none"></path></g><g stroke-linecap="round" transform="translate(229.45117759029318 42.69911698488539) rotate(0 1.9062502077419552 2.0688650213819955)"><path d="M2.14 -0.09 C2.57 -0.1, 3.03 0.45, 3.32 0.79 C3.62 1.14, 3.93 1.55, 3.91 1.98 C3.89 2.4, 3.43 3.04, 3.22 3.35 C3 3.66, 3.03 3.69, 2.63 3.83 C2.24 3.96, 1.29 4.24, 0.85 4.15 C0.41 4.05, 0.14 3.7, -0.02 3.25 C-0.18 2.79, -0.28 1.91, -0.11 1.4 C0.07 0.89, 0.62 0.42, 1.04 0.19 C1.45 -0.03, 2.23 0.04, 2.4 0.05 C2.57 0.07, 2.07 0.32, 2.07 0.3 M1.92 -0.2 C2.29 -0.21, 3.18 0.25, 3.47 0.62 C3.76 1, 3.65 1.65, 3.64 2.05 C3.63 2.45, 3.56 2.67, 3.41 3.03 C3.25 3.39, 2.99 4.02, 2.69 4.2 C2.39 4.39, 2.06 4.33, 1.6 4.15 C1.15 3.98, 0.19 3.49, -0.03 3.14 C-0.24 2.79, 0.25 2.45, 0.33 2.03 C0.41 1.61, 0.24 0.9, 0.45 0.6 C0.66 0.3, 1.31 0.39, 1.59 0.22 C1.88 0.05, 2.18 -0.45, 2.17 -0.42" stroke="none" stroke-width="0" fill="#fff"></path><path d="M1.88 -0.23 C2.32 -0.18, 3.28 0.53, 3.61 0.93 C3.94 1.34, 3.97 1.77, 3.88 2.19 C3.79 2.6, 3.29 3.12, 3.07 3.4 C2.85 3.69, 2.97 3.81, 2.58 3.89 C2.19 3.97, 1.13 4.05, 0.73 3.86 C0.33 3.68, 0.25 3.23, 0.18 2.78 C0.1 2.32, 0.1 1.52, 0.27 1.12 C0.44 0.72, 0.91 0.58, 1.2 0.37 C1.5 0.16, 1.8 -0.09, 2.04 -0.15 C2.27 -0.21, 2.62 -0.07, 2.6 0.01 M1.86 0.34 C2.27 0.32, 3.22 0.2, 3.49 0.48 C3.76 0.76, 3.54 1.51, 3.5 2.02 C3.46 2.53, 3.39 3.24, 3.23 3.53 C3.07 3.81, 2.92 3.68, 2.55 3.72 C2.19 3.76, 1.38 3.9, 1.05 3.76 C0.71 3.63, 0.71 3.29, 0.56 2.91 C0.41 2.52, 0.13 1.93, 0.15 1.45 C0.18 0.97, 0.38 0.22, 0.71 0.01 C1.04 -0.2, 1.9 0.16, 2.14 0.2 C2.38 0.24, 2.18 0.26, 2.15 0.25" stroke="#0a11d3" stroke-width="1" fill="none"></path></g><g stroke-linecap="round" transform="translate(229.45117759029318 52.57038081575163) rotate(0 1.9062502077419552 2.0688650213819955)"><path d="M1.68 0.09 C2.05 0.04, 2.86 0.3, 3.23 0.5 C3.59 0.7, 3.78 0.85, 3.87 1.3 C3.95 1.74, 3.97 2.78, 3.74 3.18 C3.5 3.58, 2.81 3.57, 2.45 3.68 C2.09 3.8, 1.89 3.95, 1.58 3.85 C1.27 3.75, 0.89 3.36, 0.61 3.07 C0.32 2.77, -0.11 2.46, -0.15 2.1 C-0.19 1.74, 0.05 1.27, 0.38 0.91 C0.71 0.56, 1.56 0.07, 1.85 -0.02 C2.13 -0.12, 2.13 0.31, 2.08 0.36 M1.95 0.32 C2.33 0.33, 3.05 0.26, 3.41 0.51 C3.77 0.76, 4.12 1.34, 4.11 1.83 C4.09 2.33, 3.59 3.05, 3.32 3.49 C3.05 3.93, 2.86 4.45, 2.51 4.47 C2.15 4.5, 1.58 3.87, 1.2 3.65 C0.82 3.43, 0.35 3.58, 0.23 3.17 C0.1 2.76, 0.32 1.73, 0.45 1.2 C0.58 0.67, 0.7 0.14, 1.02 -0.02 C1.34 -0.18, 2.25 0.29, 2.36 0.24 C2.47 0.19, 1.69 -0.26, 1.68 -0.33" stroke="none" stroke-width="0" fill="#fff"></path><path d="M1.64 0.27 C2.04 0.3, 2.97 0.36, 3.35 0.55 C3.73 0.73, 3.9 0.9, 3.94 1.38 C3.98 1.86, 3.86 3.01, 3.59 3.4 C3.33 3.8, 2.75 3.65, 2.36 3.76 C1.96 3.87, 1.6 4.14, 1.24 4.06 C0.89 3.98, 0.47 3.62, 0.22 3.27 C-0.03 2.93, -0.34 2.5, -0.25 2 C-0.16 1.5, 0.42 0.57, 0.75 0.29 C1.08 0.01, 1.56 0.42, 1.76 0.33 C1.95 0.24, 1.86 -0.28, 1.9 -0.27 M2.31 0.22 C2.66 0.2, 2.78 0, 3.04 0.23 C3.31 0.45, 3.78 1.04, 3.9 1.56 C4.02 2.08, 4.07 2.94, 3.77 3.34 C3.48 3.75, 2.6 3.83, 2.14 4 C1.68 4.18, 1.34 4.52, 1.02 4.37 C0.7 4.23, 0.38 3.6, 0.21 3.12 C0.03 2.64, -0.05 1.95, -0.02 1.51 C0.01 1.07, 0.03 0.72, 0.39 0.48 C0.75 0.23, 1.87 0.15, 2.16 0.05 C2.46 -0.04, 2.22 -0.06, 2.17 -0.09" stroke="#0a11d3" stroke-width="1" fill="none"></path></g><g stroke-linecap="round"><g transform="translate(84.40005493164062 117.19996643066406) rotate(0 27.600006103515625 8.399993896484375)"><path d="M-0.48 1.13 C5.19 1.6, 23.99 -0.71, 33.21 2.08 C42.43 4.87, 51.06 15.54, 54.84 17.88 M1.47 0.69 C7.02 1.38, 23.32 0.88, 32.05 3.45 C40.79 6.02, 49.81 13.87, 53.88 16.1" stroke="#343a40" stroke-width="2" fill="none"></path></g><g transform="translate(84.40005493164062 117.19996643066406) rotate(0 27.600006103515625 8.399993896484375)"><path d="M41.27 13.05 C45.42 13.38, 46.78 14.13, 53.88 16.1 M41.27 13.05 C46.48 14.39, 51.28 15.93, 53.88 16.1" stroke="#343a40" stroke-width="2" fill="none"></path></g><g transform="translate(84.40005493164062 117.19996643066406) rotate(0 27.600006103515625 8.399993896484375)"><path d="M46.18 5.65 C49.14 7.69, 49.36 10.16, 53.88 16.1 M46.18 5.65 C49.52 9.85, 52.4 14.27, 53.88 16.1" stroke="#343a40" stroke-width="2" fill="none"></path></g></g><mask></mask><g stroke-linecap="round"><g transform="translate(362.8000793457031 123.59996032714844) rotate(0 -30 -2.8000030517578125)"><path d="M1.15 -0.28 C-5.6 -0.85, -29.43 -4.51, -39.68 -4.58 C-49.93 -4.66, -57.06 -1.39, -60.34 -0.71 M0.3 -1.47 C-6.73 -2.26, -30.61 -6.53, -40.88 -6.17 C-51.14 -5.82, -58.3 -0.5, -61.28 0.66" stroke="#343a40" stroke-width="2" fill="none"></path></g><g transform="translate(362.8000793457031 123.59996032714844) rotate(0 -30 -2.8000030517578125)"><path d="M-53.99 -7.13 C-57 -4.61, -58.55 -1.61, -61.28 0.66 M-53.99 -7.13 C-56.52 -4.36, -58.1 -2.44, -61.28 0.66" stroke="#343a40" stroke-width="2" fill="none"></path></g><g transform="translate(362.8000793457031 123.59996032714844) rotate(0 -30 -2.8000030517578125)"><path d="M-50.69 -0.62 C-54.86 -0.47, -57.63 0.12, -61.28 0.66 M-50.69 -0.62 C-54.27 0.16, -56.87 0.08, -61.28 0.66" stroke="#343a40" stroke-width="2" fill="none"></path></g></g><mask></mask><g stroke-linecap="round"><g transform="translate(220.40005493164062 81.99995422363281) rotate(0 0.4000244140625 16.400009155273438)"><path d="M0.46 -0.08 C0.66 5.46, 0.84 27.47, 0.83 32.88 M0.03 -0.6 C0.19 5.08, 0.17 28.07, 0.42 33.62" stroke="#343a40" stroke-width="2" fill="none"></path></g><g transform="translate(220.40005493164062 81.99995422363281) rotate(0 0.4000244140625 16.400009155273438)"><path d="M-5.48 18.31 C-4.26 21.98, -2.61 25, 0.42 33.62 M-5.48 18.31 C-4.51 21.68, -2.77 25.23, 0.42 33.62" stroke="#343a40" stroke-width="2" fill="none"></path></g><g transform="translate(220.40005493164062 81.99995422363281) rotate(0 0.4000244140625 16.400009155273438)"><path d="M5.74 18.1 C4.29 21.86, 3.26 24.94, 0.42 33.62 M5.74 18.1 C4.29 21.46, 3.62 25.06, 0.42 33.62" stroke="#343a40" stroke-width="2" fill="none"></path></g></g><mask></mask><g stroke-linecap="round"><g transform="translate(362.0000915527344 277.19996643066406) rotate(0 -30.399993896484375 -2.399993896484375)"><path d="M-0.47 -1.08 C-7.46 -0.55, -31.42 3.43, -41.45 2.55 C-51.49 1.68, -57.48 -4.76, -60.68 -6.35 M1.48 0.97 C-5.63 1.22, -31.43 1.93, -41.91 0.93 C-52.38 -0.06, -58.31 -3.82, -61.39 -5" stroke="#343a40" stroke-width="2" fill="none"></path></g><g transform="translate(362.0000915527344 277.19996643066406) rotate(0 -30.399993896484375 -2.399993896484375)"><path d="M-51.38 -4.26 C-55.68 -3.76, -57.38 -4.7, -61.39 -5 M-51.38 -4.26 C-54.07 -4.68, -57.85 -4.59, -61.39 -5" stroke="#343a40" stroke-width="2" fill="none"></path></g><g transform="translate(362.0000915527344 277.19996643066406) rotate(0 -30.399993896484375 -2.399993896484375)"><path d="M-54.2 2 C-57.51 0.38, -58.25 -2.69, -61.39 -5 M-54.2 2 C-56.04 -0.31, -58.96 -2.13, -61.39 -5" stroke="#343a40" stroke-width="2" fill="none"></path></g></g><mask></mask><g stroke-linecap="round"><g transform="translate(80.40005493164062 296.3999481201172) rotate(0 31.600006103515625 -13.599990844726562)"><path d="M0.41 -0.59 C7.97 -2.08, 35.5 -4.57, 45.89 -8.82 C56.27 -13.07, 59.77 -23.03, 62.69 -26.07 M-0.84 1.71 C6.62 0.35, 35.09 -2.79, 45.51 -7.71 C55.92 -12.64, 58.62 -24.79, 61.66 -27.82" stroke="#343a40" stroke-width="2" fill="none"></path></g><g transform="translate(80.40005493164062 296.3999481201172) rotate(0 31.600006103515625 -13.599990844726562)"><path d="M59.11 -14.77 C59.31 -18.03, 59.93 -24.25, 61.66 -27.82 M59.11 -14.77 C59.97 -20.37, 61.71 -25.38, 61.66 -27.82" stroke="#343a40" stroke-width="2" fill="none"></path></g><g transform="translate(80.40005493164062 296.3999481201172) rotate(0 31.600006103515625 -13.599990844726562)"><path d="M51.32 -19.47 C54.19 -21.15, 57.46 -25.76, 61.66 -27.82 M51.32 -19.47 C55.26 -23.22, 60.06 -26.38, 61.66 -27.82" stroke="#343a40" stroke-width="2" fill="none"></path></g></g><mask></mask><g stroke-linecap="round"><g transform="translate(219.60006713867188 312.3999786376953) rotate(0 0 -17.600006103515625)"><path d="M0.22 0.08 C0.29 -5.62, 0.57 -28.9, 0.52 -34.77 M-0.32 -0.35 C-0.29 -6.15, 0.38 -29.82, 0.36 -35.51" stroke="#343a40" stroke-width="2" fill="none"></path></g><g transform="translate(219.60006713867188 312.3999786376953) rotate(0 0 -17.600006103515625)"><path d="M6.13 -18.88 C4.5 -23.38, 3.2 -29.66, 0.36 -35.51 M6.13 -18.88 C4.44 -23.85, 2.82 -29.62, 0.36 -35.51" stroke="#343a40" stroke-width="2" fill="none"></path></g><g transform="translate(219.60006713867188 312.3999786376953) rotate(0 0 -17.600006103515625)"><path d="M-5.9 -19.06 C-3.68 -23.52, -1.1 -29.75, 0.36 -35.51 M-5.9 -19.06 C-3.78 -23.92, -1.58 -29.63, 0.36 -35.51" stroke="#343a40" stroke-width="2" fill="none"></path></g></g><mask></mask></svg>